<svg xmlns="http://www.w3.org/2000/svg" width="162.756" height="105.83" viewBox="0 0 162.756 105.83">
  <g id="Group_8799" data-name="Group 8799" transform="translate(-2268.75 289)">
    <path id="Subtraction_1" data-name="Subtraction 1" d="M159.619,92.779H3.137V56.072H0V43.906H3.137V7.2H61.249V9.327H5.265V28.01H24.3V40.776a11.114,11.114,0,0,1,0,18.425V71.968H5.265V90.651H80.314V77.482h2.128V90.651h75.049V71.968H138.458V59.2a11.114,11.114,0,0,1,0-18.425V28.01h19.033V9.327H101.686V7.2h57.933V43.906h3.137V56.072h-3.137V92.778ZM140.585,30.137v39.7h16.906V61.405h-3.869V38.572h3.869V30.137ZM5.265,61.405V69.84h16.9v-39.7H5.265v8.435H9.134V61.405ZM155.749,40.7V59.278h1.742V40.7ZM5.265,40.7V59.278H7.006V40.7Zm133.193,2.794h0a8.983,8.983,0,0,0,0,12.989V43.494Zm-114.161,0V56.483a8.979,8.979,0,0,0,0-12.989Zm135.321,2.539v7.911h1.01V46.033Zm-157.491,0v7.911h1.01V46.033Z" transform="translate(2268.75 -275.949)" fill="#b9d057"/>
    <text id="_" data-name="=" transform="translate(2336 -255)" fill="#b9d057" font-size="36" font-family="Albert Sans" font-weight="500"><tspan x="0" y="0">=</tspan></text>
  </g>
</svg>
