<?xml version="1.0" encoding="UTF-8"?>
<svg id="Capa_1" data-name="Capa 1" xmlns="http://www.w3.org/2000/svg" viewBox="0 0 44 45.9">
  <defs>
    <style>
      .cls-1 {
        fill: #4c8b65;
      }

      .cls-2 {
        fill: #5cb680;
      }

      .cls-3 {
        fill: #b9d057;
      }

      .cls-4 {
        fill: #92c01f;
      }
    </style>
  </defs>
  <g id="Grupo_10286" data-name="Grupo 10286">
    <path id="Trazado_2252" data-name="Trazado 2252" class="cls-4" d="M27.1,28.2c1.3-3.9,1.7-7.9,1.4-12L42.9,1.2c.7,3,1.1,6,1.1,9.1-1.3,4.2-3.6,8-6.6,11.2-2.9,3-6.4,5.3-10.3,6.8"/>
    <path id="Trazado_2253" data-name="Trazado 2253" class="cls-3" d="M34.2,0C25,0,16.3,3.8,10,10.5,3.6,17.3,0,26.3,0,35.7c1.3-4.2,3.6-8,6.6-11.2,2.9-3,6.4-5.3,10.3-6.8,3.7-1.3,7.6-1.8,11.5-1.4L42.9,1.2C40.1,.4,37.1,0,34.2,0"/>
    <path id="Trazado_2254" data-name="Trazado 2254" class="cls-1" d="M17,17.7c-1.3,3.9-1.7,7.9-1.4,12L1.1,44.8C.4,41.8,0,38.7,0,35.7c1.3-4.2,3.6-8,6.6-11.2,2.9-3,6.4-5.3,10.3-6.8"/>
    <path id="Trazado_2255" data-name="Trazado 2255" class="cls-2" d="M9.8,45.9c9.1,0,17.9-3.8,24.2-10.5,6.5-6.8,10.1-15.8,10-25.2-1.3,4.2-3.6,8-6.6,11.2-2.9,3-6.4,5.3-10.3,6.8-3.7,1.3-7.6,1.8-11.5,1.4L1.1,44.8c2.8,.8,5.8,1.2,8.7,1.2"/>
  </g>
</svg>