<svg xmlns="http://www.w3.org/2000/svg" xmlns:xlink="http://www.w3.org/1999/xlink" width="57.538" height="98.866" viewBox="0 0 57.538 98.866">
  <defs>
    <clipPath id="clip-path">
      <rect id="Rectangle_1266" data-name="Rectangle 1266" width="57.518" height="98.847" transform="translate(0 0)" fill="none"/>
    </clipPath>
    <clipPath id="clip-path-2">
      <rect id="Rectangle_1267" data-name="Rectangle 1267" width="54.725" height="97.431" transform="translate(2.813 1.435)" fill="none"/>
    </clipPath>
  </defs>
  <g id="Group_8739" data-name="Group 8739" transform="translate(0 0)">
    <g id="Group_8740" data-name="Group 8740">
      <g id="Group_8739-2" data-name="Group 8739" clip-path="url(#clip-path)">
        <path id="Path_1802" data-name="Path 1802" d="M.95,5.245V93.6a4.275,4.275,0,0,0,4.275,4.275h47.03A4.275,4.275,0,0,0,56.53,93.6V5.245A4.275,4.275,0,0,0,52.255.97H5.225A4.275,4.275,0,0,0,.95,5.245" fill="#fff"/>
        <rect id="Rectangle_1265" data-name="Rectangle 1265" width="55.58" height="96.908" rx="4.75" transform="translate(0.95 0.97)" fill="none" stroke="#7bc11b" stroke-linecap="square" stroke-miterlimit="10" stroke-width="1.9"/>
        <path id="Path_1803" data-name="Path 1803" d="M42.7,58.925H42.32v-2.4a1.82,1.82,0,0,1-.356.268,2.463,2.463,0,0,1-.393.185v-.363a2.235,2.235,0,0,0,.549-.349,1.416,1.416,0,0,0,.334-.416H42.7Zm-3.41-1.507a1.976,1.976,0,0,0,.171,1,.514.514,0,0,0,.876,0,1.906,1.906,0,0,0,.178-1,1.882,1.882,0,0,0-.178-1,.524.524,0,0,0-.438-.252.49.49,0,0,0-.416.215,1.979,1.979,0,0,0-.193,1.039m-.386,0a2.844,2.844,0,0,1,.112-.876,1.1,1.1,0,0,1,.326-.512.863.863,0,0,1,.557-.178.887.887,0,0,1,.438.1.782.782,0,0,1,.3.282,1.543,1.543,0,0,1,.186.453,3.524,3.524,0,0,1-.037,1.6,1.118,1.118,0,0,1-.334.512.844.844,0,0,1-.557.178.831.831,0,0,1-.69-.319,1.992,1.992,0,0,1-.305-1.24m-1.468.208h1.158v.379H37.435Zm-.915,1.3h-.379v-2.4a1.82,1.82,0,0,1-.356.268,2.428,2.428,0,0,1-.394.185v-.363a2.242,2.242,0,0,0,.55-.349,1.432,1.432,0,0,0,.334-.416h.245Zm-3.8-.809.379-.052a.864.864,0,0,0,.215.46.553.553,0,0,0,.386.141.6.6,0,0,0,.438-.178.627.627,0,0,0,.185-.46.582.582,0,0,0-.593-.594.99.99,0,0,0-.268.045l.045-.334a.306.306,0,0,0,.059.007A.771.771,0,0,0,34,57.025a.431.431,0,0,0,.193-.386.452.452,0,0,0-.141-.342.552.552,0,0,0-.728.008.7.7,0,0,0-.185.408l-.379-.067a1.015,1.015,0,0,1,.312-.586.906.906,0,0,1,.609-.208.962.962,0,0,1,.46.111.756.756,0,0,1,.438.683.627.627,0,0,1-.112.364.709.709,0,0,1-.311.26.681.681,0,0,1,.423.26.778.778,0,0,1,.148.489.906.906,0,0,1-.3.683,1.025,1.025,0,0,1-.734.275.968.968,0,0,1-.669-.238.919.919,0,0,1-.3-.623m-1.468-.49h1.158v.379H31.256Zm-2.311-1.358V55.9h1.982v.289a4.329,4.329,0,0,0-.579.832,4.83,4.83,0,0,0-.446,1.061,3.884,3.884,0,0,0-.141.839h-.386a3.781,3.781,0,0,1,.141-.868,4.551,4.551,0,0,1,.386-.988,4.685,4.685,0,0,1,.542-.8Zm-2.4,1.848.378-.052a.871.871,0,0,0,.216.46.553.553,0,0,0,.386.141.6.6,0,0,0,.438-.178.627.627,0,0,0,.185-.46.584.584,0,0,0-.594-.594.989.989,0,0,0-.267.045l.045-.334a.3.3,0,0,0,.059.007.774.774,0,0,0,.431-.126.431.431,0,0,0,.193-.386.455.455,0,0,0-.141-.342.552.552,0,0,0-.728.008.7.7,0,0,0-.185.408l-.379-.067a1,1,0,0,1,.312-.586.9.9,0,0,1,.608-.208.966.966,0,0,1,.461.111.753.753,0,0,1,.437.683.633.633,0,0,1-.111.364.706.706,0,0,1-.312.26.681.681,0,0,1,.423.26.778.778,0,0,1,.149.489.906.906,0,0,1-.3.683,1.026,1.026,0,0,1-.735.275.966.966,0,0,1-.668-.238.919.919,0,0,1-.3-.623m-1.366.861.89-3.162h.3l-.883,3.162Zm-.571-1.128.4.1a1.373,1.373,0,0,1-.46.764,1.254,1.254,0,0,1-.809.26,1.467,1.467,0,0,1-.8-.2,1.269,1.269,0,0,1-.475-.579,2.2,2.2,0,0,1-.155-.824,1.85,1.85,0,0,1,.178-.839A1.224,1.224,0,0,1,23,56a1.528,1.528,0,0,1,.743-.186,1.241,1.241,0,0,1,.772.237,1.168,1.168,0,0,1,.437.654l-.4.089a.919.919,0,0,0-.305-.483.807.807,0,0,0-.512-.156.975.975,0,0,0-.586.171.9.9,0,0,0-.334.46,1.759,1.759,0,0,0-.1.579,1.944,1.944,0,0,0,.112.691.855.855,0,0,0,.356.43,1,1,0,0,0,.519.141.857.857,0,0,0,.572-.193,1.055,1.055,0,0,0,.327-.586m-4.779,1.076V55.867h2.063v.356H20.237v.95h1.432v.364H20.237v1.388Zm-2.86,0V55.867h2.212v.356H17.37v.943h1.693v.356H17.37v1.039h1.878v.364Zm-2.458-1.6h.794a.812.812,0,0,0,.55-.149.515.515,0,0,0,.17-.408.545.545,0,0,0-.1-.327.453.453,0,0,0-.26-.185,1.524,1.524,0,0,0-.378-.03h-.78Zm-.408,1.6V55.867h1.158a2.766,2.766,0,0,1,.468.03.878.878,0,0,1,.371.141.7.7,0,0,1,.245.3.887.887,0,0,1,.1.415.926.926,0,0,1-.252.661,1.184,1.184,0,0,1-.891.267h-.787v1.247Z" fill="#7bc11b"/>
        <path id="Path_1804" data-name="Path 1804" d="M42.805,68.262a3.012,3.012,0,0,1-.616.141,1.433,1.433,0,0,0-.327.081.3.3,0,0,0-.148.119.324.324,0,0,0-.052.178.335.335,0,0,0,.111.253.5.5,0,0,0,.334.1.773.773,0,0,0,.386-.1.615.615,0,0,0,.253-.26.915.915,0,0,0,.059-.371Zm.03.838a1.43,1.43,0,0,1-.4.253,1.159,1.159,0,0,1-.416.074.821.821,0,0,1-.564-.178.6.6,0,0,1-.193-.46.606.606,0,0,1,.074-.3.64.64,0,0,1,.193-.216.966.966,0,0,1,.267-.126c.075-.015.186-.032.334-.052a3.017,3.017,0,0,0,.676-.133v-.1a.405.405,0,0,0-.1-.319.625.625,0,0,0-.431-.134.649.649,0,0,0-.393.1.54.54,0,0,0-.185.327l-.364-.045a.85.85,0,0,1,.156-.379.711.711,0,0,1,.334-.222,1.44,1.44,0,0,1,.5-.082,1.288,1.288,0,0,1,.461.067.57.57,0,0,1,.259.171.5.5,0,0,1,.119.252,1.744,1.744,0,0,1,.022.341v.5a5.633,5.633,0,0,0,.023.661.765.765,0,0,0,.1.267h-.393a.748.748,0,0,1-.074-.275m-2.4-2.783H40.8v3.058H40.43Zm-3.313,1.952a.951.951,0,0,0,.185.638.629.629,0,0,0,.935,0,.977.977,0,0,0,.186-.653.925.925,0,0,0-.186-.623.614.614,0,0,0-.935,0,.933.933,0,0,0-.185.638m-.386,0a1.144,1.144,0,0,1,.341-.913,1.047,1.047,0,0,1,.7-.245,1,1,0,0,1,.749.3,1.131,1.131,0,0,1,.29.824,1.42,1.42,0,0,1-.134.675.92.92,0,0,1-.371.386,1.1,1.1,0,0,1-.534.134,1.009,1.009,0,0,1-.757-.3,1.22,1.22,0,0,1-.282-.861m-1.985,0a.984.984,0,0,0,.178.638.54.54,0,0,0,.423.208.528.528,0,0,0,.416-.2.906.906,0,0,0,.178-.616,1.034,1.034,0,0,0-.178-.668.54.54,0,0,0-.43-.216.526.526,0,0,0-.423.208,1.042,1.042,0,0,0-.164.646m1.188,1.106v-.282a.7.7,0,0,1-.624.334.85.85,0,0,1-.482-.148,1,1,0,0,1-.349-.409,1.432,1.432,0,0,1-.119-.6,1.533,1.533,0,0,1,.112-.6.872.872,0,0,1,.326-.416.912.912,0,0,1,.5-.141.751.751,0,0,1,.356.082.685.685,0,0,1,.252.222v-1.1h.379v3.058Zm-3.818,0V67.156h.342v.319a.788.788,0,0,1,.7-.364.872.872,0,0,1,.363.074.537.537,0,0,1,.253.186.727.727,0,0,1,.118.275,1.959,1.959,0,0,1,.023.363v1.366h-.379V68.024a1,1,0,0,0-.044-.341.359.359,0,0,0-.156-.178.454.454,0,0,0-.26-.075.613.613,0,0,0-.416.156.759.759,0,0,0-.17.579v1.21Zm-2.1-1.321h1.24a.74.74,0,0,0-.141-.423.578.578,0,0,0-.468-.216.6.6,0,0,0-.438.179.707.707,0,0,0-.193.46m1.233.608.393.045a.983.983,0,0,1-.349.534,1.015,1.015,0,0,1-.631.186,1.028,1.028,0,0,1-.772-.3,1.417,1.417,0,0,1,.008-1.707.974.974,0,0,1,.749-.312.926.926,0,0,1,.72.3,1.184,1.184,0,0,1,.282.847v.1H30a.848.848,0,0,0,.208.556.621.621,0,0,0,.468.193.571.571,0,0,0,.349-.1.715.715,0,0,0,.23-.349m-2.464-1.506h.379v2.219h-.379Zm0-.839h.379v.431h-.379Zm-1.522,3.058-.846-2.219h.4l.475,1.328c.049.144.1.292.141.446.034-.114.081-.253.141-.416l.49-1.358h.386l-.839,2.219Zm-2.749-1.106a.951.951,0,0,0,.186.638.629.629,0,0,0,.935,0,.977.977,0,0,0,.185-.653.925.925,0,0,0-.185-.623.614.614,0,0,0-.935,0,.933.933,0,0,0-.186.638m-.386,0a1.148,1.148,0,0,1,.341-.913,1.047,1.047,0,0,1,.7-.245,1,1,0,0,1,.75.3,1.131,1.131,0,0,1,.289.824,1.421,1.421,0,0,1-.133.675.926.926,0,0,1-.371.386,1.1,1.1,0,0,1-.535.134,1.009,1.009,0,0,1-.757-.3,1.22,1.22,0,0,1-.282-.861m-3.42,1.106V67.156h.334v.311a.765.765,0,0,1,.274-.259.823.823,0,0,1,.4-.1.713.713,0,0,1,.4.1.535.535,0,0,1,.223.282.8.8,0,0,1,.682-.386.678.678,0,0,1,.513.186.761.761,0,0,1,.178.556v1.522h-.379V67.98a1,1,0,0,0-.037-.327.281.281,0,0,0-.126-.156.4.4,0,0,0-.23-.067.523.523,0,0,0-.386.156.681.681,0,0,0-.156.5v1.292h-.379v-1.44a.657.657,0,0,0-.089-.379.337.337,0,0,0-.3-.126.525.525,0,0,0-.3.089.458.458,0,0,0-.193.245,1.35,1.35,0,0,0-.06.46v1.151Zm-2.133-1.106a.956.956,0,0,0,.185.638.631.631,0,0,0,.936,0,.982.982,0,0,0,.185-.653.931.931,0,0,0-.185-.623.615.615,0,0,0-.936,0,.938.938,0,0,0-.185.638m-.386,0a1.148,1.148,0,0,1,.341-.913,1.047,1.047,0,0,1,.7-.245,1,1,0,0,1,.75.3,1.131,1.131,0,0,1,.289.824,1.421,1.421,0,0,1-.133.675.928.928,0,0,1-.372.386,1.1,1.1,0,0,1-.534.134,1.009,1.009,0,0,1-.757-.3,1.22,1.22,0,0,1-.282-.861M16.9,69.375V67.156h.341V67.5a.865.865,0,0,1,.238-.312.433.433,0,0,1,.244-.074.758.758,0,0,1,.386.119l-.133.349A.517.517,0,0,0,17.7,67.5a.377.377,0,0,0-.222.074.416.416,0,0,0-.141.208,1.526,1.526,0,0,0-.06.438v1.158Zm-2.392-1.6h.794a.812.812,0,0,0,.55-.149.515.515,0,0,0,.17-.408.547.547,0,0,0-.1-.327.453.453,0,0,0-.26-.185,1.523,1.523,0,0,0-.378-.03h-.78Zm-.408,1.6V66.317h1.158a2.766,2.766,0,0,1,.468.03.878.878,0,0,1,.371.141.7.7,0,0,1,.245.3.887.887,0,0,1,.1.415.926.926,0,0,1-.252.661,1.184,1.184,0,0,1-.891.267h-.787v1.247Z"/>
        <path id="Path_1805" data-name="Path 1805" d="M43.517,72.018h.371v3.058h-.371Zm-.953,1.945a2.868,2.868,0,0,1-.616.141,1.4,1.4,0,0,0-.327.082.3.3,0,0,0-.148.118.325.325,0,0,0-.052.179.332.332,0,0,0,.111.252.5.5,0,0,0,.334.1.774.774,0,0,0,.386-.1.609.609,0,0,0,.253-.26.915.915,0,0,0,.059-.371Zm.03.839a1.389,1.389,0,0,1-.4.252,1.138,1.138,0,0,1-.416.074.821.821,0,0,1-.564-.178.6.6,0,0,1-.193-.46.606.606,0,0,1,.074-.3.627.627,0,0,1,.193-.215.958.958,0,0,1,.268-.126c.074-.015.185-.032.334-.052a3,3,0,0,0,.675-.134v-.1a.4.4,0,0,0-.1-.319.617.617,0,0,0-.43-.134.653.653,0,0,0-.394.1.547.547,0,0,0-.185.327l-.364-.045a.864.864,0,0,1,.156-.378.712.712,0,0,1,.334-.223,1.47,1.47,0,0,1,.505-.081,1.307,1.307,0,0,1,.46.066.59.59,0,0,1,.26.171.5.5,0,0,1,.118.252,1.741,1.741,0,0,1,.023.342v.505a5.714,5.714,0,0,0,.022.66.765.765,0,0,0,.1.267h-.393a.762.762,0,0,1-.074-.274m-1.812-.06.052.327a1.271,1.271,0,0,1-.282.037.621.621,0,0,1-.319-.067.415.415,0,0,1-.163-.17,1.343,1.343,0,0,1-.045-.438V73.154h-.274v-.3h.274v-.549l.379-.223v.772h.378v.3H40.4v1.292a.846.846,0,0,0,.015.207.2.2,0,0,0,.066.075.236.236,0,0,0,.127.029,1.236,1.236,0,0,0,.17-.015m-3.11-.326.371-.06a.517.517,0,0,0,.171.342.626.626,0,0,0,.4.119.6.6,0,0,0,.386-.1.309.309,0,0,0,.126-.245.22.22,0,0,0-.111-.2,1.765,1.765,0,0,0-.386-.133,3.878,3.878,0,0,1-.579-.178.552.552,0,0,1-.238-.208.561.561,0,0,1-.081-.3.587.587,0,0,1,.066-.275.648.648,0,0,1,.186-.215.923.923,0,0,1,.238-.1,1.167,1.167,0,0,1,.326-.044,1.247,1.247,0,0,1,.453.074.636.636,0,0,1,.3.2.766.766,0,0,1,.133.342l-.371.052a.387.387,0,0,0-.148-.268.517.517,0,0,0-.334-.1.6.6,0,0,0-.371.089.243.243,0,0,0-.112.2.188.188,0,0,0,.045.127.285.285,0,0,0,.148.1c.035.015.144.048.327.1a4.352,4.352,0,0,1,.557.171.532.532,0,0,1,.252.2.544.544,0,0,1,.089.319.623.623,0,0,1-.111.357.768.768,0,0,1-.319.259,1.136,1.136,0,0,1-.468.089,1.062,1.062,0,0,1-.661-.178.853.853,0,0,1-.282-.534m-1.947-.661h1.24a.74.74,0,0,0-.141-.423.58.58,0,0,0-.468-.215.6.6,0,0,0-.438.178.7.7,0,0,0-.193.46m1.232.609.394.044a.994.994,0,0,1-.349.535,1.015,1.015,0,0,1-.631.185,1.028,1.028,0,0,1-.772-.3,1.42,1.42,0,0,1,.007-1.708.976.976,0,0,1,.75-.311.923.923,0,0,1,.72.3,1.181,1.181,0,0,1,.282.846v.1H35.7a.851.851,0,0,0,.208.557.621.621,0,0,0,.467.193.573.573,0,0,0,.349-.1.711.711,0,0,0,.23-.349m-2.945.712V72.857h.341V73.2a.857.857,0,0,1,.238-.312.428.428,0,0,1,.245-.074.759.759,0,0,1,.386.118l-.134.349a.521.521,0,0,0-.274-.081.371.371,0,0,0-.223.074.418.418,0,0,0-.141.208,1.516,1.516,0,0,0-.06.438v1.157ZM31.886,73.97a.954.954,0,0,0,.186.639.629.629,0,0,0,.935,0,.979.979,0,0,0,.186-.653.93.93,0,0,0-.186-.624.616.616,0,0,0-.935,0,.937.937,0,0,0-.186.638m-.386,0a1.144,1.144,0,0,1,.342-.912,1.042,1.042,0,0,1,.7-.245,1,1,0,0,1,.749.3,1.131,1.131,0,0,1,.29.824,1.424,1.424,0,0,1-.134.676.932.932,0,0,1-.371.386,1.1,1.1,0,0,1-.534.133,1.009,1.009,0,0,1-.757-.3,1.222,1.222,0,0,1-.283-.862m-2.4,1.106V72.018H31.16v.357H29.5v.95h1.433v.363H29.5v1.388Zm-3.633,0V72.857h.342v.319a.787.787,0,0,1,.7-.363.861.861,0,0,1,.364.074.526.526,0,0,1,.252.185.752.752,0,0,1,.119.275,2,2,0,0,1,.022.364v1.365H26.89v-1.35a.968.968,0,0,0-.045-.342.367.367,0,0,0-.156-.178.461.461,0,0,0-.26-.074.609.609,0,0,0-.415.156.755.755,0,0,0-.171.579v1.209ZM23.74,72.582,24.022,72h.49l-.46.586Zm-.408,1.388a.954.954,0,0,0,.185.639.629.629,0,0,0,.935,0,.979.979,0,0,0,.186-.653.93.93,0,0,0-.186-.624.616.616,0,0,0-.935,0,.937.937,0,0,0-.185.638m-.386,0a1.144,1.144,0,0,1,.341-.912,1.042,1.042,0,0,1,.7-.245,1,1,0,0,1,.749.3,1.131,1.131,0,0,1,.29.824,1.424,1.424,0,0,1-.134.676.932.932,0,0,1-.371.386,1.1,1.1,0,0,1-.534.133,1.009,1.009,0,0,1-.757-.3,1.217,1.217,0,0,1-.282-.862m-.809-1.113h.379v2.219h-.379Zm0-.839h.379v.431h-.379Zm-.364,2.724.052.327a1.285,1.285,0,0,1-.282.037.618.618,0,0,1-.319-.067.411.411,0,0,1-.164-.17,1.382,1.382,0,0,1-.044-.438V73.154h-.275v-.3h.275v-.549l.378-.223v.772h.379v.3h-.379v1.292a.846.846,0,0,0,.015.207.192.192,0,0,0,.067.075.235.235,0,0,0,.126.029,1.248,1.248,0,0,0,.171-.015m-3.11-.326.371-.06a.517.517,0,0,0,.171.342.623.623,0,0,0,.4.119.6.6,0,0,0,.386-.1.31.31,0,0,0,.127-.245.221.221,0,0,0-.112-.2,1.744,1.744,0,0,0-.386-.133,3.878,3.878,0,0,1-.579-.178.543.543,0,0,1-.237-.208.553.553,0,0,1-.082-.3.577.577,0,0,1,.067-.275.645.645,0,0,1,.185-.215.939.939,0,0,1,.238-.1,1.174,1.174,0,0,1,.327-.044,1.241,1.241,0,0,1,.452.074.636.636,0,0,1,.3.2.766.766,0,0,1,.134.342l-.371.052a.388.388,0,0,0-.149-.268.517.517,0,0,0-.334-.1.6.6,0,0,0-.371.089.242.242,0,0,0-.111.2.192.192,0,0,0,.044.127.284.284,0,0,0,.149.1c.034.015.143.048.326.1a4.3,4.3,0,0,1,.557.171.531.531,0,0,1,.342.519.624.624,0,0,1-.112.357.768.768,0,0,1-.319.259,1.133,1.133,0,0,1-.468.089,1.056,1.056,0,0,1-.66-.178.843.843,0,0,1-.282-.534m-1.948-.661h1.24a.74.74,0,0,0-.141-.423.58.58,0,0,0-.468-.215.6.6,0,0,0-.438.178.707.707,0,0,0-.193.46m1.233.609.393.044a.989.989,0,0,1-.349.535,1.013,1.013,0,0,1-.631.185,1.029,1.029,0,0,1-.772-.3,1.418,1.418,0,0,1,.008-1.708.975.975,0,0,1,.749-.311.923.923,0,0,1,.72.3,1.181,1.181,0,0,1,.282.846v.1H16.693a.851.851,0,0,0,.208.557.625.625,0,0,0,.468.193.572.572,0,0,0,.348-.1.719.719,0,0,0,.231-.349m-3.363-.49v-.356h1.3v1.135a2.215,2.215,0,0,1-.616.357,1.865,1.865,0,0,1-.653.118,1.742,1.742,0,0,1-.817-.193,1.256,1.256,0,0,1-.556-.556,1.77,1.77,0,0,1-.186-.817,1.887,1.887,0,0,1,.186-.831,1.218,1.218,0,0,1,.534-.579,1.72,1.72,0,0,1,.809-.186,1.551,1.551,0,0,1,.6.112.935.935,0,0,1,.416.3,1.245,1.245,0,0,1,.237.5l-.363.1a1.2,1.2,0,0,0-.178-.363.675.675,0,0,0-.29-.216,1.05,1.05,0,0,0-.423-.081,1.219,1.219,0,0,0-.482.089.863.863,0,0,0-.327.223,1.054,1.054,0,0,0-.186.3,1.614,1.614,0,0,0-.118.617,1.5,1.5,0,0,0,.141.69.905.905,0,0,0,.408.408,1.259,1.259,0,0,0,.571.134,1.451,1.451,0,0,0,.9-.319v-.572Z"/>
        <path id="Path_1806" data-name="Path 1806" d="M36.2,79.456h1.24a.747.747,0,0,0-.141-.424.58.58,0,0,0-.468-.215A.6.6,0,0,0,36.4,79a.7.7,0,0,0-.193.461m1.232.608.394.045a.992.992,0,0,1-.349.534,1.017,1.017,0,0,1-.631.186,1.028,1.028,0,0,1-.772-.3,1.419,1.419,0,0,1,.007-1.707.976.976,0,0,1,.75-.312.923.923,0,0,1,.72.3,1.181,1.181,0,0,1,.282.846v.1H36.182a.851.851,0,0,0,.208.557.618.618,0,0,0,.467.193.573.573,0,0,0,.349-.1.7.7,0,0,0,.23-.349m-2.471-2.345h.371v3.058h-.371Zm-2.029,1.93a1.14,1.14,0,0,0,.111.579.537.537,0,0,0,.906.074.984.984,0,0,0,.178-.639.994.994,0,0,0-.171-.638.521.521,0,0,0-.415-.208.542.542,0,0,0-.431.215.943.943,0,0,0-.178.617m.007,1.128H32.6V77.719h.371V78.81a.744.744,0,0,1,.608-.3.906.906,0,0,1,.386.082.791.791,0,0,1,.305.23,1.089,1.089,0,0,1,.185.363,1.437,1.437,0,0,1,.067.446,1.271,1.271,0,0,1-.282.883.88.88,0,0,1-.676.312.706.706,0,0,1-.616-.327Zm-1.3-2.22h.379v2.219h-.379Zm0-.838h.379v.431h-.379Zm-2.378,3.058v-2.22h.341v.32a.787.787,0,0,1,.7-.364.877.877,0,0,1,.364.074.529.529,0,0,1,.252.186.73.73,0,0,1,.119.274,2,2,0,0,1,.022.364v1.366h-.378V79.426a.976.976,0,0,0-.045-.342.358.358,0,0,0-.156-.178.458.458,0,0,0-.259-.074.611.611,0,0,0-.416.156.755.755,0,0,0-.171.579v1.21Zm-2.1-1.321h1.24a.747.747,0,0,0-.141-.424.58.58,0,0,0-.468-.215.6.6,0,0,0-.438.178.7.7,0,0,0-.193.461m1.232.608.394.045a.992.992,0,0,1-.349.534,1.017,1.017,0,0,1-.631.186,1.028,1.028,0,0,1-.772-.3,1.419,1.419,0,0,1,.007-1.707.976.976,0,0,1,.75-.312.923.923,0,0,1,.72.3,1.181,1.181,0,0,1,.282.846v.1H27.149a.851.851,0,0,0,.208.557.618.618,0,0,0,.467.193.573.573,0,0,0,.349-.1.7.7,0,0,0,.23-.349m-1.878.379.052.326a1.285,1.285,0,0,1-.282.037.63.63,0,0,1-.319-.066.426.426,0,0,1-.164-.171,1.374,1.374,0,0,1-.044-.438V78.854h-.275v-.3h.275v-.549l.378-.223v.772h.379v.3h-.379v1.292a.914.914,0,0,0,.015.208.2.2,0,0,0,.067.074.226.226,0,0,0,.126.03,1.235,1.235,0,0,0,.171-.015m-3.11-.327.371-.059a.516.516,0,0,0,.171.341.624.624,0,0,0,.4.119.6.6,0,0,0,.386-.1.309.309,0,0,0,.126-.245.218.218,0,0,0-.111-.2,1.769,1.769,0,0,0-.386-.134,3.686,3.686,0,0,1-.579-.178.54.54,0,0,1-.238-.208.562.562,0,0,1-.082-.3.581.581,0,0,1,.067-.274.661.661,0,0,1,.186-.216.914.914,0,0,1,.237-.1,1.212,1.212,0,0,1,.327-.044,1.273,1.273,0,0,1,.453.074.648.648,0,0,1,.3.2.779.779,0,0,1,.133.341l-.371.052a.383.383,0,0,0-.148-.267.521.521,0,0,0-.334-.1.606.606,0,0,0-.372.089.244.244,0,0,0-.111.2.187.187,0,0,0,.045.126.288.288,0,0,0,.148.1q.052.022.327.1a4.493,4.493,0,0,1,.556.171.528.528,0,0,1,.342.52.615.615,0,0,1-.112.356.764.764,0,0,1-.319.26,1.144,1.144,0,0,1-.467.089,1.068,1.068,0,0,1-.661-.178.858.858,0,0,1-.282-.535m-1.984-.445a.956.956,0,0,0,.185.638.629.629,0,0,0,.935,0,.977.977,0,0,0,.186-.653.93.93,0,0,0-.186-.624.616.616,0,0,0-.935,0,.943.943,0,0,0-.185.639m-.386,0a1.148,1.148,0,0,1,.341-.913,1.047,1.047,0,0,1,.7-.245,1,1,0,0,1,.749.3,1.13,1.13,0,0,1,.29.824,1.42,1.42,0,0,1-.134.675.932.932,0,0,1-.371.386,1.1,1.1,0,0,1-.534.134,1.009,1.009,0,0,1-.757-.3,1.22,1.22,0,0,1-.282-.861m-2.8.126.379-.037a.874.874,0,0,0,.126.378.7.7,0,0,0,.311.238,1.187,1.187,0,0,0,.468.089,1.145,1.145,0,0,0,.408-.067.577.577,0,0,0,.268-.185.458.458,0,0,0,.089-.268A.365.365,0,0,0,20.2,79.7a.6.6,0,0,0-.275-.186,3.829,3.829,0,0,0-.542-.148,2.943,2.943,0,0,1-.594-.194.834.834,0,0,1-.326-.282.718.718,0,0,1-.1-.386.8.8,0,0,1,.126-.43.823.823,0,0,1,.386-.3,1.453,1.453,0,0,1,.564-.1,1.516,1.516,0,0,1,.6.111.8.8,0,0,1,.394.319.977.977,0,0,1,.156.483l-.394.029a.628.628,0,0,0-.208-.438.824.824,0,0,0-.534-.148.868.868,0,0,0-.535.134.4.4,0,0,0-.17.326.338.338,0,0,0,.118.267,1.541,1.541,0,0,0,.609.223,4.3,4.3,0,0,1,.683.193.875.875,0,0,1,.393.312.755.755,0,0,1,.127.438.857.857,0,0,1-.141.46.927.927,0,0,1-.4.334,1.4,1.4,0,0,1-.587.119,1.8,1.8,0,0,1-.7-.119.975.975,0,0,1-.609-.913"/>
        <path id="Path_1807" data-name="Path 1807" d="M43.04,89.327V87.108h.341v.341a.864.864,0,0,1,.238-.312.432.432,0,0,1,.244-.074.758.758,0,0,1,.386.119l-.133.349a.517.517,0,0,0-.275-.082.377.377,0,0,0-.222.074.424.424,0,0,0-.142.208,1.562,1.562,0,0,0-.059.438v1.158Zm-.953-1.113a3.012,3.012,0,0,1-.616.141,1.462,1.462,0,0,0-.327.081.3.3,0,0,0-.148.119.324.324,0,0,0-.052.178.335.335,0,0,0,.111.253.5.5,0,0,0,.334.1.773.773,0,0,0,.386-.1.615.615,0,0,0,.253-.26.915.915,0,0,0,.059-.371Zm.03.838a1.416,1.416,0,0,1-.4.253,1.159,1.159,0,0,1-.416.074.821.821,0,0,1-.564-.178.6.6,0,0,1-.193-.46.606.606,0,0,1,.074-.3.64.64,0,0,1,.193-.216.973.973,0,0,1,.268-.126c.074-.015.185-.032.334-.052a3.019,3.019,0,0,0,.675-.133v-.1a.406.406,0,0,0-.1-.319.622.622,0,0,0-.43-.134.65.65,0,0,0-.394.1.54.54,0,0,0-.185.327l-.364-.045a.873.873,0,0,1,.156-.379.711.711,0,0,1,.334-.222,1.442,1.442,0,0,1,.505-.082,1.282,1.282,0,0,1,.46.067.573.573,0,0,1,.26.171.5.5,0,0,1,.118.252,1.722,1.722,0,0,1,.023.341V88.4a5.724,5.724,0,0,0,.022.661.765.765,0,0,0,.1.267h-.393a.768.768,0,0,1-.074-.275M39.585,88.9h.431v.43h-.431Zm-2.236-.721a.975.975,0,0,0,.17.639.545.545,0,0,0,.431.2.566.566,0,0,0,.438-.2.921.921,0,0,0,.178-.624.9.9,0,0,0-.186-.616.55.55,0,0,0-.861,0,.907.907,0,0,0-.17.6m-.312,1.337.364.052a.334.334,0,0,0,.126.244.634.634,0,0,0,.386.1.662.662,0,0,0,.4-.1.52.52,0,0,0,.193-.289,2.321,2.321,0,0,0,.022-.482.765.765,0,0,1-.609.289A.846.846,0,0,1,37.208,89a1.3,1.3,0,0,1-.245-.794,1.514,1.514,0,0,1,.111-.586.914.914,0,0,1,.334-.408.88.88,0,0,1,.512-.149.8.8,0,0,1,.646.312v-.267h.349v1.915a1.719,1.719,0,0,1-.112.735.763.763,0,0,1-.334.341,1.116,1.116,0,0,1-.556.126,1.072,1.072,0,0,1-.646-.178.609.609,0,0,1-.23-.534m-1.365-.186V87.108h.342v.341a.876.876,0,0,1,.237-.312.438.438,0,0,1,.245-.074.758.758,0,0,1,.386.119l-.133.349a.517.517,0,0,0-.275-.082.382.382,0,0,0-.223.074.429.429,0,0,0-.141.208,1.562,1.562,0,0,0-.059.438v1.158Zm-2.125-1.106a.951.951,0,0,0,.186.638.629.629,0,0,0,.935,0,.977.977,0,0,0,.185-.653.925.925,0,0,0-.185-.623.614.614,0,0,0-.935,0,.933.933,0,0,0-.186.638m-.386,0a1.145,1.145,0,0,1,.342-.913,1.042,1.042,0,0,1,.7-.245,1,1,0,0,1,.75.3,1.131,1.131,0,0,1,.289.824,1.421,1.421,0,0,1-.133.675.926.926,0,0,1-.371.386,1.1,1.1,0,0,1-.535.134,1.011,1.011,0,0,1-.757-.3,1.22,1.22,0,0,1-.282-.861m-.943.676h.431v.43h-.431Zm-.794-.379.371.044a.943.943,0,0,1-.312.6.918.918,0,0,1-.616.215.942.942,0,0,1-.727-.3,1.213,1.213,0,0,1-.275-.854,1.543,1.543,0,0,1,.119-.63.829.829,0,0,1,.356-.4,1.1,1.1,0,0,1,.535-.134.9.9,0,0,1,.586.186.821.821,0,0,1,.3.512l-.364.059a.591.591,0,0,0-.185-.334.466.466,0,0,0-.319-.119.589.589,0,0,0-.468.208.977.977,0,0,0-.171.639,1,1,0,0,0,.171.653.558.558,0,0,0,.445.2.531.531,0,0,0,.371-.133.655.655,0,0,0,.186-.416m-2.546.809V87.4h-.333v-.3h.333v-.23a1.071,1.071,0,0,1,.037-.334.507.507,0,0,1,.193-.238.723.723,0,0,1,.386-.089,1.863,1.863,0,0,1,.35.037l-.061.327a1.086,1.086,0,0,0-.215-.023.337.337,0,0,0-.245.075.39.39,0,0,0-.073.274v.2h.438v.3H29.25v1.922Zm-2.185-1.321h1.241a.74.74,0,0,0-.142-.423.576.576,0,0,0-.468-.216.6.6,0,0,0-.438.179.7.7,0,0,0-.193.46m1.232.608.394.045a.983.983,0,0,1-.349.534,1.017,1.017,0,0,1-.631.186,1.028,1.028,0,0,1-.772-.3,1.419,1.419,0,0,1,.007-1.707.976.976,0,0,1,.75-.312.928.928,0,0,1,.721.3,1.183,1.183,0,0,1,.281.847v.1H26.671a.848.848,0,0,0,.208.556.618.618,0,0,0,.467.193.565.565,0,0,0,.349-.1.689.689,0,0,0,.23-.349m-3.55-.386a1,1,0,0,0,.17.639.553.553,0,0,0,.424.2.537.537,0,0,0,.422-.208.989.989,0,0,0,.186-.66.949.949,0,0,0-.178-.631.512.512,0,0,0-.416-.215.536.536,0,0,0-.423.23.992.992,0,0,0-.185.645m-.342,1.945V87.108h.342V87.4a.7.7,0,0,1,.646-.334.853.853,0,0,1,.5.149.868.868,0,0,1,.326.408,1.561,1.561,0,0,1-.014,1.195.894.894,0,0,1-.839.564.68.68,0,0,1-.334-.082.823.823,0,0,1-.245-.2v1.076ZM22.949,88.9h.431v.43h-.431Zm-2.782.43-.676-2.219h.386l.356,1.284.126.475c.006-.025.045-.178.119-.46l.349-1.3h.386l.334,1.291.111.423.127-.43.378-1.284h.363l-.69,2.219H21.45L21.094,88,21,87.62l-.446,1.707Zm-3.088,0L16.4,87.108h.386l.356,1.284.127.475c0-.025.044-.178.118-.46l.349-1.3h.386l.334,1.291.112.423.126-.43.378-1.284h.364l-.69,2.219h-.386L18.006,88l-.089-.378-.445,1.707Zm-3.088,0-.675-2.219H13.7l.356,1.284.126.475c.005-.025.045-.178.119-.46l.349-1.3h.386l.334,1.291.111.423.126-.43.379-1.284h.363l-.69,2.219h-.386L14.919,88l-.089-.378-.446,1.707Z"/>
      </g>
    </g>
    <g id="Group_8742" data-name="Group 8742">
      <g id="Group_8741" data-name="Group 8741" clip-path="url(#clip-path-2)">
        <path id="Path_1808" data-name="Path 1808" d="M15.971,45.11H11.639v1.816h4.21c.91,0,1.181.4,1.181.907s-.271.922-1.181.922h-4.21v4.062H13.73V50.572h2.241a2.759,2.759,0,1,0,0-5.462" fill="#7bc11b"/>
        <path id="Path_1809" data-name="Path 1809" d="M21.109,52.816h6.94V51H23.2V49.786h3.3V47.969H23.2V46.926h4.849V45.11h-6.94Z" fill="#7bc11b"/>
        <path id="Path_1810" data-name="Path 1810" d="M30.335,52.816h2.092v-3.03h3.3V47.969h-3.3V46.926h4.85V45.11H30.335Z" fill="#7bc11b"/>
        <path id="Path_1811" data-name="Path 1811" d="M42.836,46.779a2.3,2.3,0,0,1,1.783.777L46.3,46.384a4.738,4.738,0,0,0-3.467-1.422c-2.527,0-4.551,1.742-4.551,4s2.024,4,4.551,4a4.739,4.739,0,0,0,3.452-1.407l-1.7-1.091a2.5,2.5,0,0,1-1.756.684,2.194,2.194,0,1,1,0-4.371" fill="#7bc11b"/>
        <path id="Path_1812" data-name="Path 1812" d="M32.191,34.486V30.974h4.964l-6.61-13.526-3.1,5.9a7.05,7.05,0,0,1,.127,1.334,7.132,7.132,0,0,1-3.741,6.251l-.117.04h5.177v3.512Z" fill="#7bc11b"/>
        <path id="Path_1813" data-name="Path 1813" d="M18.314,30.546v4.043h3.305V30.607a6.117,6.117,0,1,0-3.305-.061" fill="#7bc11b"/>
        <path id="Path_1814" data-name="Path 1814" d="M16.7,18.211a7.387,7.387,0,0,1,1.033-.44,18.062,18.062,0,0,1,12.61-5.7c7.312,0,11.927,5.614,10.661,12.711l2.923-2.727,1.951,2.168c.981-8.015-4.48-14.231-12.942-14.231-6.138,0-12.292,3.272-16.325,8.129a.058.058,0,0,0,.011.07.063.063,0,0,0,.078.017" fill="#7bc11b"/>
        <path id="Path_1815" data-name="Path 1815" d="M25.069,42.294c9.007,0,18.045-7.043,20.369-15.8l-1.893-2.1L40.267,27.45c-2.508,6.671-9.546,11.82-16.548,11.82-7.224,0-11.814-5.477-10.706-12.452a7.466,7.466,0,0,1-.26-1.4s0-.032-.043-.028a.048.048,0,0,0-.039.028c-.068.241-.131.481-.191.722-2.173,8.922,3.462,16.15,12.589,16.15" fill="#7bc11b"/>
        <path id="Path_1816" data-name="Path 1816" d="M46.054,43.475h1.3v.344h-.438v1.04h-.424v-1.04h-.439Z" fill="#7bc11b"/>
        <path id="Path_1817" data-name="Path 1817" d="M47.542,43.475h.567l.21.841.212-.841h.561v1.384h-.35V43.806l-.265,1.053H48.16l-.269-1.053v1.053h-.349Z" fill="#7bc11b"/>
      </g>
    </g>
  </g>
</svg>
