<svg id="Group_8743" data-name="Group 8743" xmlns="http://www.w3.org/2000/svg" xmlns:xlink="http://www.w3.org/1999/xlink" width="87.412" height="135.348" viewBox="0 0 87.412 135.348">
  <defs>
    <clipPath id="clip-path">
      <rect id="Rectangle_1277" data-name="Rectangle 1277" width="87.412" height="135.348" fill="none"/>
    </clipPath>
  </defs>
  <g id="Group_8743-2" data-name="Group 8743" transform="translate(0 0)" clip-path="url(#clip-path)">
    <path id="Path_1818" data-name="Path 1818" d="M4.658.288h77.8a4.37,4.37,0,0,1,4.37,4.37V97.75a4.37,4.37,0,0,1-4.37,4.37H4.658a4.37,4.37,0,0,1-4.37-4.37V4.658A4.37,4.37,0,0,1,4.658.288" transform="translate(0.15 0.15)" fill="#fff"/>
    <rect id="Rectangle_1268" data-name="Rectangle 1268" width="86.537" height="101.832" rx="2.876" transform="translate(0.437 0.438)" fill="none" stroke="#285c4d" stroke-width="0.575"/>
    <path id="Path_1819" data-name="Path 1819" d="M16.17,55.164l-1.357-4.25h.781l.711,2.448.252.915c.011-.041.09-.331.237-.868l.7-2.5h.764l.656,2.463.214.813.257-.818.775-2.46h.728l-1.416,4.25h-.755l-.69-2.545-.173-.722-.909,3.269Z" transform="translate(7.696 26.452)" fill="#285c4d"/>
    <path id="Path_1820" data-name="Path 1820" d="M20.323,55.164l-1.36-4.25h.78l.713,2.448.251.915c.011-.041.09-.331.237-.868l.7-2.5h.764l.659,2.463.211.813.257-.818.778-2.46h.728l-1.419,4.25h-.752l-.693-2.545L22,51.9l-.912,3.269Z" transform="translate(9.852 26.452)" fill="#285c4d"/>
    <path id="Path_1821" data-name="Path 1821" d="M24.47,55.164l-1.357-4.25h.781l.711,2.448.252.915c.011-.041.09-.331.237-.868l.7-2.5h.761l.659,2.463.214.813.257-.818.775-2.46h.728l-1.416,4.25h-.755l-.69-2.545-.173-.722-.909,3.269Z" transform="translate(12.008 26.452)" fill="#285c4d"/>
    <rect id="Rectangle_1269" data-name="Rectangle 1269" width="0.846" height="0.816" transform="translate(41.356 80.799)" fill="#285c4d"/>
    <path id="Path_1822" data-name="Path 1822" d="M28.835,55.748V52.057h-.647V51.5h.647v-.45a1.948,1.948,0,0,1,.079-.632.943.943,0,0,1,.383-.453,1.4,1.4,0,0,1,.763-.175,3.993,3.993,0,0,1,.7.07l-.111.625a2.739,2.739,0,0,0-.441-.04.662.662,0,0,0-.48.138.743.743,0,0,0-.14.523v.391h.862v.558h-.862v3.691h-.749Z" transform="translate(14.645 25.868)" fill="#285c4d"/>
    <path id="Path_1823" data-name="Path 1823" d="M29.923,53.911l.749-.094a.991.991,0,0,0,.34.656,1.286,1.286,0,0,0,.792.222,1.211,1.211,0,0,0,.757-.2.606.606,0,0,0,.248-.477.434.434,0,0,0-.219-.386,3.4,3.4,0,0,0-.757-.243,7.334,7.334,0,0,1-1.126-.343,1.111,1.111,0,0,1-.485-.4,1.033,1.033,0,0,1-.166-.57.99.99,0,0,1,.137-.524,1.177,1.177,0,0,1,.362-.407,1.918,1.918,0,0,1,.474-.21,2.449,2.449,0,0,1,.646-.082,2.555,2.555,0,0,1,.9.144,1.256,1.256,0,0,1,.576.389,1.557,1.557,0,0,1,.257.661l-.732.1a.8.8,0,0,0-.283-.521,1.076,1.076,0,0,0-.666-.184A1.241,1.241,0,0,0,31,51.6a.466.466,0,0,0-.217.383.391.391,0,0,0,.091.254.681.681,0,0,0,.286.193c.071.027.29.09.647.184a9.674,9.674,0,0,1,1.1.331,1.158,1.158,0,0,1,.491.378,1.054,1.054,0,0,1,.176.618,1.209,1.209,0,0,1-.216.678,1.38,1.38,0,0,1-.626.488,2.32,2.32,0,0,1-.928.176,2.122,2.122,0,0,1-1.307-.345,1.605,1.605,0,0,1-.576-1.03" transform="translate(15.546 26.42)" fill="#285c4d"/>
    <path id="Path_1824" data-name="Path 1824" d="M35.82,53.642l.732.1a1.784,1.784,0,0,1-.609,1.134,1.827,1.827,0,0,1-1.213.415,1.928,1.928,0,0,1-1.447-.567,2.282,2.282,0,0,1-.549-1.634,2.956,2.956,0,0,1,.234-1.21,1.618,1.618,0,0,1,.719-.77,2.14,2.14,0,0,1,1.048-.258A1.836,1.836,0,0,1,35.9,51.2a1.6,1.6,0,0,1,.584,1l-.732.094a1.16,1.16,0,0,0-.366-.644.952.952,0,0,0-.634-.214,1.171,1.171,0,0,0-.909.386,2.4,2.4,0,0,0-.012,2.478,1.1,1.1,0,0,0,.884.391,1.078,1.078,0,0,0,.732-.258,1.261,1.261,0,0,0,.368-.8" transform="translate(17.007 26.419)" fill="#285c4d"/>
    <rect id="Rectangle_1270" data-name="Rectangle 1270" width="0.849" height="0.816" transform="translate(54.359 80.799)" fill="#285c4d"/>
    <path id="Path_1825" data-name="Path 1825" d="M37.554,53.066a1.758,1.758,0,0,0,.372,1.223,1.262,1.262,0,0,0,1.86,0,1.793,1.793,0,0,0,.372-1.243,1.708,1.708,0,0,0-.374-1.2,1.269,1.269,0,0,0-1.858,0,1.763,1.763,0,0,0-.372,1.225m-.766,0a2.145,2.145,0,0,1,.681-1.752,2.109,2.109,0,0,1,1.386-.468,2.046,2.046,0,0,1,1.489.57,2.145,2.145,0,0,1,.574,1.588,2.734,2.734,0,0,1-.254,1.292,1.807,1.807,0,0,1-.745.731,2.235,2.235,0,0,1-1.065.258,2.032,2.032,0,0,1-1.5-.571,2.245,2.245,0,0,1-.57-1.647" transform="translate(19.113 26.42)" fill="#285c4d"/>
    <path id="Path_1826" data-name="Path 1826" d="M40.074,55.195v-4.25h.658V51.6a1.911,1.911,0,0,1,.477-.6.847.847,0,0,1,.48-.143,1.463,1.463,0,0,1,.77.234l-.267.656a1.139,1.139,0,0,0-.541-.14.724.724,0,0,0-.435.14.78.78,0,0,0-.277.394,2.712,2.712,0,0,0-.123.837v2.22h-.743Z" transform="translate(20.82 26.421)" fill="#285c4d"/>
    <path id="Path_1827" data-name="Path 1827" d="M42.46,52.994a1.817,1.817,0,0,0,.349,1.223,1.118,1.118,0,0,0,.871.381,1.14,1.14,0,0,0,.872-.378,1.756,1.756,0,0,0,.35-1.205,1.7,1.7,0,0,0-.363-1.181,1.135,1.135,0,0,0-.871-.4,1.1,1.1,0,0,0-.854.391,1.7,1.7,0,0,0-.354,1.164m-.611,2.55.748.1a.693.693,0,0,0,.249.485,1.284,1.284,0,0,0,.757.205,1.346,1.346,0,0,0,.8-.205,1,1,0,0,0,.383-.562,4.449,4.449,0,0,0,.053-.931,1.555,1.555,0,0,1-1.223.564,1.694,1.694,0,0,1-1.415-.634,2.372,2.372,0,0,1-.5-1.517,2.808,2.808,0,0,1,.226-1.123,1.814,1.814,0,0,1,.666-.793,1.841,1.841,0,0,1,1.02-.278,1.589,1.589,0,0,1,1.289.623v-.529h.679v3.671a3.355,3.355,0,0,1-.21,1.407,1.483,1.483,0,0,1-.661.652,2.361,2.361,0,0,1-1.117.239,2.192,2.192,0,0,1-1.276-.336,1.152,1.152,0,0,1-.463-1.035" transform="translate(21.664 26.42)" fill="#285c4d"/>
    <path id="Path_1828" data-name="Path 1828" d="M40.938,4.973c-13.475,0-18.235,20.155-22.669,36.364-1.6-1.559-6.529-6.289-6.536-6.283a1.957,1.957,0,0,0-2.829.018,1.885,1.885,0,0,0,0,2.687c.04.032,6.681,6.408,8.981,8.613a2.031,2.031,0,0,0,2.459.427,2.473,2.473,0,0,0,1.108-1.556c7.868-33.93,14.9-36.459,19.465-36.459a8.068,8.068,0,0,1,8.266,8.193c5.729,0,9.318,7.233,4.706,11.693,3.823,1.778,5.525,3.968,5.525,6.735A5.812,5.812,0,0,1,53.485,41C50,41,48.221,38.841,45.5,38.836a1.921,1.921,0,0,0-1.981,1.9v6.852H38.384V40.763a1.879,1.879,0,0,0-1.848-1.912c-.018,0-.441.011-.43.023L29.23,39.7a1.911,1.911,0,0,0,.515,3.785,1.243,1.243,0,0,0,.342-.018c-.011,0,4.354-.536,4.354-.536v6.762a1.985,1.985,0,0,0,1.912,1.7h9.136a1.988,1.988,0,0,0,1.985-1.921V43.291a13.283,13.283,0,0,0,5.935,1.559c5.122,0,10.015-3.878,9.993-9.558a9.6,9.6,0,0,0-4.115-7.73,10.547,10.547,0,0,0-6.523-13.77A12.132,12.132,0,0,0,40.938,4.973" transform="translate(4.334 2.584)" fill="#285c4d"/>
    <path id="Path_1829" data-name="Path 1829" d="M26.186,41.514c0,1.6,1.852,2.554,4.893,3.948,2.416,1.088,3.8,2.24,3.8,3.161,0,1.5-1.675,2.027-3.241,2.027-2.425,0-3.858-.928-4.65-3.015l-.067-.179h-.195c-.432,0-.77.018-.959.248a.829.829,0,0,0-.047.758c-.006,0,.533,2.143.533,2.143.141.524.337.608,1.2.77a26.973,26.973,0,0,0,4,.392c4.633,0,6.7-1.811,6.7-3.607,0-1.307-1.346-2.559-4.25-3.951L32.591,43.6c-1.986-.91-3.182-1.456-3.182-2.415,0-.928,1.24-1.579,3.022-1.579,2.316,0,2.937,1.248,3.22,2.334l.053.207h.222c.514,0,.84-.041,1.03-.245a.522.522,0,0,0,.132-.454l-.184-1.855c-.05-.593-.523-.681-1.176-.805a16.5,16.5,0,0,0-3.118-.3c-4.022,0-6.425,1.134-6.425,3.027" transform="translate(13.331 19.997)" fill="#285c4d"/>
    <path id="Path_1830" data-name="Path 1830" d="M34.786,45.269c0,3.224,2.91,6.495,8.476,6.495a11.3,11.3,0,0,0,5.566-1.219l.321-.166-.52-.549.029.029a.408.408,0,0,0-.407-.2l-.274.088a9.381,9.381,0,0,1-4.048.764c-2.877,0-5.979-1.807-5.979-5.786,0-3.785,3.363-5.125,6.232-5.125,2.068,0,3.167.71,3.366,2.178l.029.242h.258c.243,0,.9,0,.9-.471V39.34c0-.538-.646-.62-.921-.656l-.269-.033a19.241,19.241,0,0,0-2.975-.164c-5.666,0-9.781,2.852-9.781,6.783" transform="translate(18.073 19.996)" fill="#285c4d"/>
    <path id="Path_1831" data-name="Path 1831" d="M24.181,38.6l-5.011.043-3.346-.056-.508-.012a.486.486,0,0,0-.509.5.5.5,0,0,0,.552.568c2.019,0,2.092.163,2.115.9l.015.471.03,1.986v4.279c0,.711-.024,1.837-.073,2.749-.012.26-.029.508-1.814.508-.5,0-.8.1-.8.571a.435.435,0,0,0,.482.506l.115,0c.21-.009.778-.033,3.566-.033,2.972,0,3.572.027,3.77.033l.111,0c.389,0,.728-.043.728-.506,0-.53-.456-.571-1.208-.571-1.795,0-1.8-.248-1.817-.5-.043-.836-.079-1.965-.079-2.752V45.747H22c2.3,0,2.562.058,2.89,1.766.09.371.4.416.655.416.541,0,.6-.284.6-.413l-.044-.634a13.33,13.33,0,0,1-.077-1.445V42.816c0-.4-.488-.4-.752-.4-.435,0-.536.267-.814,1.507-.122.473-1.071.745-2.6.745H20.5V40.821c0-1.048.195-1.055.433-1.065.878-.035,3.013-.109,3.651-.109a2.952,2.952,0,0,1,1.529.365A18.135,18.135,0,0,1,28.19,41.43c.343.267.536.424.822.424.16,0,.647,0,.647-.4a1.443,1.443,0,0,0-.2-.523c-.184-.394-.5-1.047-.893-2.044-.111-.313-.492-.313-1.194-.313Z" transform="translate(7.693 20.041)" fill="#285c4d"/>
    <path id="Path_1832" data-name="Path 1832" d="M40.824,8.823H41.4a.954.954,0,0,0,.55-.115.42.42,0,0,0,.008-.646,1.038,1.038,0,0,0-.593-.115h-.539Zm1.98,1.643h-.576a5.338,5.338,0,0,0-.707-1.114.673.673,0,0,0-.418-.126h-.28v1.24h-.471V7.551h1.01a2.91,2.91,0,0,1,.7.064.7.7,0,0,1,.4.274.743.743,0,0,1,.152.45.8.8,0,0,1-.216.542.873.873,0,0,1-.618.274v.014q.262.062.679.729Zm-1.266.766A2.278,2.278,0,0,0,43.8,8.962a2.171,2.171,0,0,0-.664-1.6,2.2,2.2,0,0,0-1.6-.664,2.262,2.262,0,0,0-2.26,2.26,2.27,2.27,0,0,0,2.26,2.269m.008-4.978a2.719,2.719,0,0,1,2.706,2.709,2.712,2.712,0,1,1-4.626-1.912,2.64,2.64,0,0,1,1.919-.8" transform="translate(20.174 3.249)" fill="#285c4d"/>
    <path id="Path_1833" data-name="Path 1833" d="M40.824,8.823H41.4a.954.954,0,0,0,.55-.115.42.42,0,0,0,.008-.646,1.038,1.038,0,0,0-.593-.115h-.539Zm1.98,1.643h-.576a5.338,5.338,0,0,0-.707-1.114.673.673,0,0,0-.418-.126h-.28v1.24h-.471V7.551h1.01a2.91,2.91,0,0,1,.7.064.7.7,0,0,1,.4.274.743.743,0,0,1,.152.45.8.8,0,0,1-.216.542.866.866,0,0,1-.618.272v.015q.262.062.679.729Zm-1.266.766A2.278,2.278,0,0,0,43.8,8.962a2.171,2.171,0,0,0-.664-1.6,2.2,2.2,0,0,0-1.6-.664,2.262,2.262,0,0,0-2.26,2.26,2.27,2.27,0,0,0,2.26,2.269Zm.008-4.978a2.719,2.719,0,0,1,2.706,2.709,2.712,2.712,0,1,1-4.626-1.912A2.64,2.64,0,0,1,41.546,6.253Z" transform="translate(20.174 3.249)" fill="none" stroke="#285c4d" stroke-width="0.189"/>
    <path id="Path_1834" data-name="Path 1834" d="M15.447,60.146H12.59v1.632h2.475V62.4H12.59V64.79h-.7V59.522h3.554Z" transform="translate(6.179 30.925)" fill="#285c4d"/>
    <path id="Path_1835" data-name="Path 1835" d="M15.447,60.146H12.59v1.632h2.475V62.4H12.59V64.79h-.7V59.522h3.554Z" transform="translate(6.179 30.925)" fill="none" stroke="#285c4d" stroke-width="0.189"/>
    <path id="Path_1836" data-name="Path 1836" d="M18.234,61.1a1.024,1.024,0,0,0-.363-.755,1.475,1.475,0,0,0-.916-.255,1.7,1.7,0,0,0-.877.2.643.643,0,0,0-.337.585.559.559,0,0,0,.258.508,3.579,3.579,0,0,0,1,.334,8.656,8.656,0,0,1,1.068.295,1.787,1.787,0,0,1,.708.466,1.209,1.209,0,0,1,.295.856,1.408,1.408,0,0,1-.539,1.129,2.135,2.135,0,0,1-1.413.448,2.414,2.414,0,0,1-1.659-.5,1.767,1.767,0,0,1-.587-1.287l.661-.058a1.125,1.125,0,0,0,.489.921,1.931,1.931,0,0,0,1.068.29,1.658,1.658,0,0,0,.944-.24.756.756,0,0,0,.363-.655.657.657,0,0,0-.377-.628,5.409,5.409,0,0,0-1.266-.389,2.824,2.824,0,0,1-1.282-.542,1.151,1.151,0,0,1-.392-.906,1.3,1.3,0,0,1,.5-1.045,2.047,2.047,0,0,1,1.351-.413,2.243,2.243,0,0,1,1.409.41,1.48,1.48,0,0,1,.568,1.17Z" transform="translate(7.726 30.894)" fill="#285c4d"/>
    <path id="Path_1837" data-name="Path 1837" d="M18.234,61.1a1.024,1.024,0,0,0-.363-.755,1.475,1.475,0,0,0-.916-.255,1.7,1.7,0,0,0-.877.2.643.643,0,0,0-.337.585.559.559,0,0,0,.258.508,3.579,3.579,0,0,0,1,.334,8.656,8.656,0,0,1,1.068.295,1.787,1.787,0,0,1,.708.466,1.209,1.209,0,0,1,.295.856,1.408,1.408,0,0,1-.539,1.129,2.135,2.135,0,0,1-1.413.448,2.414,2.414,0,0,1-1.659-.5,1.767,1.767,0,0,1-.587-1.287l.661-.058a1.125,1.125,0,0,0,.489.921,1.931,1.931,0,0,0,1.068.29,1.658,1.658,0,0,0,.944-.24.756.756,0,0,0,.363-.655.657.657,0,0,0-.377-.628,5.409,5.409,0,0,0-1.266-.389,2.824,2.824,0,0,1-1.282-.542,1.151,1.151,0,0,1-.392-.906,1.3,1.3,0,0,1,.5-1.045,2.047,2.047,0,0,1,1.351-.413,2.243,2.243,0,0,1,1.409.41,1.48,1.48,0,0,1,.568,1.17Z" transform="translate(7.726 30.894)" fill="none" stroke="#285c4d" stroke-width="0.189"/>
    <path id="Path_1838" data-name="Path 1838" d="M22.973,63.149a2.324,2.324,0,0,1-.8,1.322,2.229,2.229,0,0,1-1.377.439,2.174,2.174,0,0,1-1.884-.808,3.252,3.252,0,0,1-.593-1.951,2.7,2.7,0,0,1,.694-1.974,2.4,2.4,0,0,1,1.789-.716,2.2,2.2,0,0,1,1.316.392A2.062,2.062,0,0,1,22.884,61l-.684.161a1.625,1.625,0,0,0-.524-.827,1.384,1.384,0,0,0-.88-.277,1.567,1.567,0,0,0-1.308.564,2.385,2.385,0,0,0-.447,1.521,2.436,2.436,0,0,0,.468,1.635,1.547,1.547,0,0,0,1.225.535,1.467,1.467,0,0,0,1-.334,1.838,1.838,0,0,0,.542-1.006Z" transform="translate(9.518 30.894)" fill="#285c4d"/>
    <path id="Path_1839" data-name="Path 1839" d="M22.973,63.149a2.324,2.324,0,0,1-.8,1.322,2.229,2.229,0,0,1-1.377.439,2.174,2.174,0,0,1-1.884-.808,3.252,3.252,0,0,1-.593-1.951,2.7,2.7,0,0,1,.694-1.974,2.4,2.4,0,0,1,1.789-.716,2.2,2.2,0,0,1,1.316.392A2.062,2.062,0,0,1,22.884,61l-.684.161a1.625,1.625,0,0,0-.524-.827,1.384,1.384,0,0,0-.88-.277,1.567,1.567,0,0,0-1.308.564,2.385,2.385,0,0,0-.447,1.521,2.436,2.436,0,0,0,.468,1.635,1.547,1.547,0,0,0,1.225.535,1.467,1.467,0,0,0,1-.334,1.838,1.838,0,0,0,.542-1.006Z" transform="translate(9.518 30.894)" fill="none" stroke="#285c4d" stroke-width="0.189"/>
    <path id="Path_1840" data-name="Path 1840" d="M23.134,60.783h.289a.479.479,0,0,0,.274-.056.193.193,0,0,0,.077-.164.191.191,0,0,0-.073-.16.513.513,0,0,0-.3-.058h-.27Zm.991.822h-.287a2.7,2.7,0,0,0-.354-.558.342.342,0,0,0-.208-.062h-.141v.62H22.9V60.148H23.4a1.459,1.459,0,0,1,.348.032.342.342,0,0,1,.2.137.378.378,0,0,1,.076.225.4.4,0,0,1-.108.27.429.429,0,0,1-.31.137v.008c.088.02.2.141.34.365Zm-.632.383a1.088,1.088,0,0,0,.8-.333,1.106,1.106,0,0,0,.334-.8,1.087,1.087,0,0,0-.333-.8,1.1,1.1,0,0,0-.8-.331,1.132,1.132,0,0,0,0,2.264m0-2.489a1.359,1.359,0,1,1-.96.4,1.324,1.324,0,0,1,.96-.4" transform="translate(11.501 30.913)" fill="#285c4d"/>
    <path id="Path_1841" data-name="Path 1841" d="M23.134,60.783h.289a.479.479,0,0,0,.274-.056.193.193,0,0,0,.077-.164.191.191,0,0,0-.073-.16.513.513,0,0,0-.3-.058h-.27Zm.991.822h-.287a2.7,2.7,0,0,0-.354-.558.342.342,0,0,0-.208-.062h-.141v.62H22.9V60.148H23.4a1.459,1.459,0,0,1,.348.032.342.342,0,0,1,.2.137.378.378,0,0,1,.076.225.4.4,0,0,1-.108.27.429.429,0,0,1-.31.137v.008c.088.02.2.141.34.365Zm-.632.383a1.088,1.088,0,0,0,.8-.333,1.106,1.106,0,0,0,.334-.8,1.087,1.087,0,0,0-.333-.8,1.1,1.1,0,0,0-.8-.331,1.132,1.132,0,0,0,0,2.264Zm0-2.489a1.359,1.359,0,1,1-.96.4A1.324,1.324,0,0,1,23.5,59.5Z" transform="translate(11.501 30.913)" fill="none" stroke="#285c4d" stroke-width="0.095"/>
    <path id="Path_1842" data-name="Path 1842" d="M30.988,63.149a2.324,2.324,0,0,1-.8,1.322,2.229,2.229,0,0,1-1.377.439,2.174,2.174,0,0,1-1.884-.808,3.252,3.252,0,0,1-.593-1.951,2.7,2.7,0,0,1,.694-1.974,2.4,2.4,0,0,1,1.789-.716,2.194,2.194,0,0,1,1.316.392A2.062,2.062,0,0,1,30.9,61l-.682.161a1.637,1.637,0,0,0-.526-.827,1.381,1.381,0,0,0-.88-.277,1.567,1.567,0,0,0-1.308.564,2.384,2.384,0,0,0-.445,1.521,2.436,2.436,0,0,0,.467,1.635,1.548,1.548,0,0,0,1.226.535,1.473,1.473,0,0,0,1-.334,1.858,1.858,0,0,0,.542-1.006Z" transform="translate(13.682 30.894)" fill="#285c4d"/>
    <path id="Path_1843" data-name="Path 1843" d="M30.988,63.149a2.324,2.324,0,0,1-.8,1.322,2.229,2.229,0,0,1-1.377.439,2.174,2.174,0,0,1-1.884-.808,3.252,3.252,0,0,1-.593-1.951,2.7,2.7,0,0,1,.694-1.974,2.4,2.4,0,0,1,1.789-.716,2.194,2.194,0,0,1,1.316.392A2.062,2.062,0,0,1,30.9,61l-.682.161a1.637,1.637,0,0,0-.526-.827,1.381,1.381,0,0,0-.88-.277,1.567,1.567,0,0,0-1.308.564,2.384,2.384,0,0,0-.445,1.521,2.436,2.436,0,0,0,.467,1.635,1.548,1.548,0,0,0,1.226.535,1.473,1.473,0,0,0,1-.334,1.858,1.858,0,0,0,.542-1.006Z" transform="translate(13.682 30.894)" fill="none" stroke="#285c4d" stroke-width="0.189"/>
    <path id="Path_1844" data-name="Path 1844" d="M32.257,64.8H31.61V60.676a3.967,3.967,0,0,1-1.3.78v-.625A3.147,3.147,0,0,0,31.836,59.5h.421Z" transform="translate(15.749 30.916)" fill="#285c4d"/>
    <path id="Path_1845" data-name="Path 1845" d="M32.257,64.8H31.61V60.676a3.967,3.967,0,0,1-1.3.78v-.625A3.147,3.147,0,0,0,31.836,59.5h.421Z" transform="translate(15.749 30.916)" fill="none" stroke="#285c4d" stroke-width="0.189"/>
    <path id="Path_1846" data-name="Path 1846" d="M34.591,64.356a.846.846,0,0,0,.787-.5,3.761,3.761,0,0,0,.266-1.653,5.336,5.336,0,0,0-.115-1.255,1.385,1.385,0,0,0-.351-.682.868.868,0,0,0-1.377.287,3.85,3.85,0,0,0-.263,1.65,5.19,5.19,0,0,0,.119,1.246,1.409,1.409,0,0,0,.353.684.823.823,0,0,0,.582.226m0-4.852q1.719,0,1.719,2.7a3.687,3.687,0,0,1-.442,2.023,1.453,1.453,0,0,1-1.276.666q-1.714,0-1.714-2.688a3.708,3.708,0,0,1,.442-2.027,1.444,1.444,0,0,1,1.272-.669" transform="translate(17.081 30.916)" fill="#285c4d"/>
    <path id="Path_1847" data-name="Path 1847" d="M34.591,64.356a.846.846,0,0,0,.787-.5,3.761,3.761,0,0,0,.266-1.653,5.336,5.336,0,0,0-.115-1.255,1.385,1.385,0,0,0-.351-.682.868.868,0,0,0-1.377.287,3.85,3.85,0,0,0-.263,1.65,5.19,5.19,0,0,0,.119,1.246,1.409,1.409,0,0,0,.353.684A.823.823,0,0,0,34.591,64.356Zm0-4.852q1.719,0,1.719,2.7a3.687,3.687,0,0,1-.442,2.023,1.453,1.453,0,0,1-1.276.666q-1.714,0-1.714-2.688a3.708,3.708,0,0,1,.442-2.027A1.444,1.444,0,0,1,34.591,59.5Z" transform="translate(17.081 30.916)" fill="none" stroke="#285c4d" stroke-width="0.189"/>
    <path id="Path_1848" data-name="Path 1848" d="M39.184,60.068a7.985,7.985,0,0,0-1.345,2.106,7.663,7.663,0,0,0-.669,2.591h-.661a6.952,6.952,0,0,1,.529-2.357,7.558,7.558,0,0,1,1.311-2.214H35.774v-.626h3.41Z" transform="translate(18.586 30.949)" fill="#285c4d"/>
    <path id="Path_1849" data-name="Path 1849" d="M39.184,60.068a7.985,7.985,0,0,0-1.345,2.106,7.663,7.663,0,0,0-.669,2.591h-.661a6.952,6.952,0,0,1,.529-2.357,7.558,7.558,0,0,1,1.311-2.214H35.774v-.626h3.41Z" transform="translate(18.586 30.949)" fill="none" stroke="#285c4d" stroke-width="0.189"/>
    <path id="Path_1850" data-name="Path 1850" d="M40.44,64.356a.868.868,0,0,0,.722-.36,1.383,1.383,0,0,0,.277-.869,1.285,1.285,0,0,0-.277-.845.919.919,0,0,0-.745-.334,1,1,0,0,0-.735.313,1.128,1.128,0,0,0-.31.83,1.363,1.363,0,0,0,.3.9.942.942,0,0,0,.766.371m-1.158-2.275a1.422,1.422,0,0,1,1.269-.7,1.459,1.459,0,0,1,1.1.479,1.705,1.705,0,0,1,.453,1.222,1.894,1.894,0,0,1-.45,1.275,1.508,1.508,0,0,1-1.2.529,1.711,1.711,0,0,1-1.29-.561,2.906,2.906,0,0,1-.535-2,3.776,3.776,0,0,1,.482-2.117,1.6,1.6,0,0,1,1.4-.711,1.548,1.548,0,0,1,1,.331,1.457,1.457,0,0,1,.5.98l-.646.058c-.119-.558-.415-.837-.892-.837a1.033,1.033,0,0,0-.851.492,2.684,2.684,0,0,0-.356,1.553Z" transform="translate(20.07 30.916)" fill="#285c4d"/>
    <path id="Path_1851" data-name="Path 1851" d="M40.44,64.356a.868.868,0,0,0,.722-.36,1.383,1.383,0,0,0,.277-.869,1.285,1.285,0,0,0-.277-.845.919.919,0,0,0-.745-.334,1,1,0,0,0-.735.313,1.128,1.128,0,0,0-.31.83,1.363,1.363,0,0,0,.3.9A.942.942,0,0,0,40.44,64.356Zm-1.158-2.275a1.422,1.422,0,0,1,1.269-.7,1.459,1.459,0,0,1,1.1.479,1.705,1.705,0,0,1,.453,1.222,1.894,1.894,0,0,1-.45,1.275,1.508,1.508,0,0,1-1.2.529,1.711,1.711,0,0,1-1.29-.561,2.906,2.906,0,0,1-.535-2,3.78,3.78,0,0,1,.482-2.117,1.6,1.6,0,0,1,1.4-.711,1.548,1.548,0,0,1,1,.331,1.457,1.457,0,0,1,.5.98l-.646.058c-.119-.558-.415-.837-.892-.837a1.033,1.033,0,0,0-.851.492,2.684,2.684,0,0,0-.356,1.553Z" transform="translate(20.07 30.916)" fill="none" stroke="#285c4d" stroke-width="0.189"/>
    <path id="Path_1852" data-name="Path 1852" d="M42.367,61.6a1.742,1.742,0,0,1,1-.33,1.61,1.61,0,0,1,1.147.463A1.634,1.634,0,0,1,45,62.976a1.9,1.9,0,0,1-.5,1.33,1.684,1.684,0,0,1-1.3.55,1.812,1.812,0,0,1-1.14-.371,1.5,1.5,0,0,1-.553-1.1l.676-.05a1.249,1.249,0,0,0,.351.745A1.032,1.032,0,0,0,44,63.953a1.39,1.39,0,0,0,.305-.916A1.2,1.2,0,0,0,44,62.163a1.166,1.166,0,0,0-1.763.187l-.611-.071.515-2.709h2.612v.625h-2.1Z" transform="translate(21.567 30.95)" fill="#285c4d"/>
    <path id="Path_1853" data-name="Path 1853" d="M42.367,61.6a1.742,1.742,0,0,1,1-.33,1.61,1.61,0,0,1,1.147.463A1.634,1.634,0,0,1,45,62.976a1.9,1.9,0,0,1-.5,1.33,1.684,1.684,0,0,1-1.3.55,1.812,1.812,0,0,1-1.14-.371,1.5,1.5,0,0,1-.553-1.1l.676-.05a1.249,1.249,0,0,0,.351.745A1.032,1.032,0,0,0,44,63.953a1.39,1.39,0,0,0,.305-.916A1.2,1.2,0,0,0,44,62.163a1.166,1.166,0,0,0-1.763.187l-.611-.071.515-2.709h2.612v.625h-2.1Z" transform="translate(21.567 30.95)" fill="none" stroke="#285c4d" stroke-width="0.189"/>
    <path id="Path_1854" data-name="Path 1854" d="M46.673,64.8h-.647V60.676a3.967,3.967,0,0,1-1.3.78v-.625A3.147,3.147,0,0,0,46.252,59.5h.421Z" transform="translate(23.238 30.916)" fill="#285c4d"/>
    <path id="Path_1855" data-name="Path 1855" d="M46.673,64.8h-.647V60.676a3.967,3.967,0,0,1-1.3.78v-.625A3.147,3.147,0,0,0,46.252,59.5h.421Z" transform="translate(23.238 30.916)" fill="none" stroke="#285c4d" stroke-width="0.189"/>
    <path id="Path_1856" data-name="Path 1856" d="M17.382,78.883h-3.3V73.614h.7v4.644h2.6Z" transform="translate(7.318 38.247)" fill="#285c4d"/>
    <path id="Path_1857" data-name="Path 1857" d="M17.382,78.883h-3.3V73.614h.7v4.644h2.6Z" transform="translate(7.318 38.247)" fill="none" stroke="#285c4d" stroke-width="0.189"/>
    <path id="Path_1858" data-name="Path 1858" d="M19.451,76.737V76.5a6.847,6.847,0,0,1-1.24.266c-.488.064-.732.272-.732.621a.541.541,0,0,0,.2.432.86.86,0,0,0,.568.172,1.33,1.33,0,0,0,.84-.283,1.175,1.175,0,0,0,.366-.974m.856,1.678h-.679a1.478,1.478,0,0,1-.134-.471,2.11,2.11,0,0,1-1.4.561,1.4,1.4,0,0,1-.953-.3,1.082,1.082,0,0,1-.014-1.577,2.129,2.129,0,0,1,1.167-.409l.6-.09a3.106,3.106,0,0,0,.558-.134,3.131,3.131,0,0,0-.018-.41.638.638,0,0,0-.1-.251.556.556,0,0,0-.284-.208,1.523,1.523,0,0,0-.521-.079,1.209,1.209,0,0,0-.658.153.874.874,0,0,0-.334.576L16.9,75.69a1.285,1.285,0,0,1,.535-.88,2.087,2.087,0,0,1,1.187-.295,1.947,1.947,0,0,1,1.006.2.841.841,0,0,1,.4.494,3.017,3.017,0,0,1,.076.74v.869c0,.529.009.884.029,1.064a1.339,1.339,0,0,0,.179.532" transform="translate(8.723 38.715)" fill="#285c4d"/>
    <path id="Path_1859" data-name="Path 1859" d="M19.451,76.737V76.5a6.847,6.847,0,0,1-1.24.266c-.488.064-.732.272-.732.621a.541.541,0,0,0,.2.432.86.86,0,0,0,.568.172,1.33,1.33,0,0,0,.84-.283A1.175,1.175,0,0,0,19.451,76.737Zm.856,1.678h-.679a1.478,1.478,0,0,1-.134-.471,2.11,2.11,0,0,1-1.4.561,1.4,1.4,0,0,1-.953-.3,1.082,1.082,0,0,1-.014-1.577,2.129,2.129,0,0,1,1.167-.409l.6-.09a3.106,3.106,0,0,0,.558-.134,3.131,3.131,0,0,0-.018-.41.638.638,0,0,0-.1-.251.556.556,0,0,0-.284-.208,1.523,1.523,0,0,0-.521-.079,1.209,1.209,0,0,0-.658.153.874.874,0,0,0-.334.576L16.9,75.69a1.285,1.285,0,0,1,.535-.88,2.087,2.087,0,0,1,1.187-.295,1.947,1.947,0,0,1,1.006.2.841.841,0,0,1,.4.494,3.017,3.017,0,0,1,.076.74v.869c0,.529.009.884.029,1.064A1.339,1.339,0,0,0,20.307,78.414Z" transform="translate(8.723 38.715)" fill="none" stroke="#285c4d" stroke-width="0.189"/>
    <path id="Path_1860" data-name="Path 1860" d="M26.519,78.414h-.647V76.006a2.563,2.563,0,0,0-.035-.453.587.587,0,0,0-.65-.48.915.915,0,0,0-.658.266,1.148,1.148,0,0,0-.277.862v2.214H23.6v-2.48a1,1,0,0,0-.173-.679.647.647,0,0,0-.5-.182.886.886,0,0,0-.682.287,1.624,1.624,0,0,0-.27,1.074v1.98h-.646V74.6h.582v.532h.014a1.261,1.261,0,0,1,1.14-.618,1.3,1.3,0,0,1,.69.166.956.956,0,0,1,.4.5,1.325,1.325,0,0,1,1.176-.669,1.145,1.145,0,0,1,.887.321,1.387,1.387,0,0,1,.3.959Z" transform="translate(11.086 38.715)" fill="#285c4d"/>
    <path id="Path_1861" data-name="Path 1861" d="M26.519,78.414h-.647V76.006a2.563,2.563,0,0,0-.035-.453.587.587,0,0,0-.65-.48.915.915,0,0,0-.658.266,1.148,1.148,0,0,0-.277.862v2.214H23.6v-2.48a1,1,0,0,0-.173-.679.647.647,0,0,0-.5-.182.886.886,0,0,0-.682.287,1.624,1.624,0,0,0-.27,1.074v1.98h-.646V74.6h.582v.532h.014a1.261,1.261,0,0,1,1.14-.618,1.3,1.3,0,0,1,.69.166.956.956,0,0,1,.4.5,1.325,1.325,0,0,1,1.176-.669,1.145,1.145,0,0,1,.887.321,1.387,1.387,0,0,1,.3.959Z" transform="translate(11.086 38.715)" fill="none" stroke="#285c4d" stroke-width="0.189"/>
    <path id="Path_1862" data-name="Path 1862" d="M28.095,76.737V76.5a6.848,6.848,0,0,1-1.24.266c-.488.064-.732.272-.732.621a.541.541,0,0,0,.2.432.858.858,0,0,0,.567.172,1.331,1.331,0,0,0,.842-.283,1.175,1.175,0,0,0,.366-.974m.856,1.678h-.679a1.478,1.478,0,0,1-.134-.471,2.11,2.11,0,0,1-1.4.561,1.4,1.4,0,0,1-.953-.3,1.079,1.079,0,0,1-.014-1.577,2.129,2.129,0,0,1,1.167-.409l.6-.09a3.106,3.106,0,0,0,.558-.134,3.131,3.131,0,0,0-.018-.41.638.638,0,0,0-.1-.251.556.556,0,0,0-.284-.208,1.523,1.523,0,0,0-.521-.079,1.209,1.209,0,0,0-.658.153.868.868,0,0,0-.334.576l-.632-.084a1.285,1.285,0,0,1,.535-.88,2.087,2.087,0,0,1,1.187-.295,1.947,1.947,0,0,1,1.006.2.841.841,0,0,1,.4.494,3.017,3.017,0,0,1,.076.74v.869c0,.529.009.884.029,1.064a1.339,1.339,0,0,0,.179.532" transform="translate(13.213 38.715)" fill="#285c4d"/>
    <path id="Path_1863" data-name="Path 1863" d="M28.095,76.737V76.5a6.848,6.848,0,0,1-1.24.266c-.488.064-.732.272-.732.621a.541.541,0,0,0,.2.432.858.858,0,0,0,.567.172,1.331,1.331,0,0,0,.842-.283A1.175,1.175,0,0,0,28.095,76.737Zm.856,1.678h-.679a1.478,1.478,0,0,1-.134-.471,2.11,2.11,0,0,1-1.4.561,1.4,1.4,0,0,1-.953-.3,1.079,1.079,0,0,1-.014-1.577,2.129,2.129,0,0,1,1.167-.409l.6-.09a3.106,3.106,0,0,0,.558-.134,3.131,3.131,0,0,0-.018-.41.638.638,0,0,0-.1-.251.556.556,0,0,0-.284-.208,1.523,1.523,0,0,0-.521-.079,1.209,1.209,0,0,0-.658.153.868.868,0,0,0-.334.576l-.632-.084a1.285,1.285,0,0,1,.535-.88,2.087,2.087,0,0,1,1.187-.295,1.947,1.947,0,0,1,1.006.2.841.841,0,0,1,.4.494,3.017,3.017,0,0,1,.076.74v.869c0,.529.009.884.029,1.064A1.339,1.339,0,0,0,28.95,78.414Z" transform="translate(13.213 38.715)" fill="none" stroke="#285c4d" stroke-width="0.189"/>
    <path id="Path_1864" data-name="Path 1864" d="M30.516,74.72l-.223.6a.92.92,0,0,0-.47-.141.6.6,0,0,0-.55.324,1.84,1.84,0,0,0-.187.913v2h-.647V74.6h.59v.574h.015q.308-.661.808-.661a1.262,1.262,0,0,1,.664.205" transform="translate(14.775 38.715)" fill="#285c4d"/>
    <path id="Path_1865" data-name="Path 1865" d="M30.516,74.72l-.223.6a.92.92,0,0,0-.47-.141.6.6,0,0,0-.55.324,1.84,1.84,0,0,0-.187.913v2h-.647V74.6h.59v.574h.015q.308-.661.808-.661A1.262,1.262,0,0,1,30.516,74.72Z" transform="translate(14.775 38.715)" fill="none" stroke="#285c4d" stroke-width="0.189"/>
    <path id="Path_1866" data-name="Path 1866" d="M33.449,77.1a1.609,1.609,0,0,1-.574,1.067,1.658,1.658,0,0,1-1.018.342,1.578,1.578,0,0,1-1.282-.542,2.18,2.18,0,0,1-.453-1.445,2.374,2.374,0,0,1,.258-1.19,1.494,1.494,0,0,1,.655-.629,1.94,1.94,0,0,1,.822-.182,1.658,1.658,0,0,1,1.007.305,1.34,1.34,0,0,1,.517.9l-.625.1a1.126,1.126,0,0,0-.313-.579.8.8,0,0,0-.558-.193.951.951,0,0,0-.822.384,1.792,1.792,0,0,0-.281,1.074,1.84,1.84,0,0,0,.274,1.085.927.927,0,0,0,.795.384.882.882,0,0,0,.653-.237,1.225,1.225,0,0,0,.3-.719Z" transform="translate(15.649 38.715)" fill="#285c4d"/>
    <path id="Path_1867" data-name="Path 1867" d="M33.449,77.1a1.609,1.609,0,0,1-.574,1.067,1.658,1.658,0,0,1-1.018.342,1.578,1.578,0,0,1-1.282-.542,2.18,2.18,0,0,1-.453-1.445,2.374,2.374,0,0,1,.258-1.19,1.494,1.494,0,0,1,.655-.629,1.94,1.94,0,0,1,.822-.182,1.658,1.658,0,0,1,1.007.305,1.34,1.34,0,0,1,.517.9l-.625.1a1.126,1.126,0,0,0-.313-.579.8.8,0,0,0-.558-.193.951.951,0,0,0-.822.384,1.792,1.792,0,0,0-.281,1.074,1.84,1.84,0,0,0,.274,1.085.927.927,0,0,0,.795.384.882.882,0,0,0,.653-.237,1.225,1.225,0,0,0,.3-.719Z" transform="translate(15.649 38.715)" fill="none" stroke="#285c4d" stroke-width="0.189"/>
    <path id="Path_1868" data-name="Path 1868" d="M35.391,76.737V76.5a6.848,6.848,0,0,1-1.24.266c-.488.064-.732.272-.732.621a.541.541,0,0,0,.2.432.856.856,0,0,0,.567.172,1.331,1.331,0,0,0,.842-.283,1.175,1.175,0,0,0,.366-.974m.855,1.678h-.679a1.478,1.478,0,0,1-.134-.471,2.11,2.11,0,0,1-1.4.561,1.4,1.4,0,0,1-.953-.3,1.079,1.079,0,0,1-.014-1.577,2.129,2.129,0,0,1,1.167-.409l.6-.09a3.106,3.106,0,0,0,.558-.134,3.13,3.13,0,0,0-.018-.41.638.638,0,0,0-.1-.251.563.563,0,0,0-.284-.208,1.523,1.523,0,0,0-.521-.079,1.209,1.209,0,0,0-.658.153.868.868,0,0,0-.334.576l-.632-.084a1.285,1.285,0,0,1,.535-.88,2.087,2.087,0,0,1,1.187-.295,1.947,1.947,0,0,1,1.006.2.841.841,0,0,1,.4.494,3.017,3.017,0,0,1,.076.74v.869c0,.529.009.884.029,1.064a1.34,1.34,0,0,0,.179.532" transform="translate(17.003 38.715)" fill="#285c4d"/>
    <path id="Path_1869" data-name="Path 1869" d="M35.391,76.737V76.5a6.848,6.848,0,0,1-1.24.266c-.488.064-.732.272-.732.621a.541.541,0,0,0,.2.432.856.856,0,0,0,.567.172,1.331,1.331,0,0,0,.842-.283A1.175,1.175,0,0,0,35.391,76.737Zm.855,1.678h-.679a1.478,1.478,0,0,1-.134-.471,2.11,2.11,0,0,1-1.4.561,1.4,1.4,0,0,1-.953-.3,1.079,1.079,0,0,1-.014-1.577,2.129,2.129,0,0,1,1.167-.409l.6-.09a3.106,3.106,0,0,0,.558-.134,3.13,3.13,0,0,0-.018-.41.638.638,0,0,0-.1-.251.563.563,0,0,0-.284-.208,1.523,1.523,0,0,0-.521-.079,1.209,1.209,0,0,0-.658.153.868.868,0,0,0-.334.576l-.632-.084a1.285,1.285,0,0,1,.535-.88,2.087,2.087,0,0,1,1.187-.295,1.947,1.947,0,0,1,1.006.2.841.841,0,0,1,.4.494,3.017,3.017,0,0,1,.076.74v.869c0,.529.009.884.029,1.064A1.34,1.34,0,0,0,36.246,78.414Z" transform="translate(17.003 38.715)" fill="none" stroke="#285c4d" stroke-width="0.189"/>
    <path id="Path_1870" data-name="Path 1870" d="M38.842,78.44a.906.906,0,0,0,.719-.348,1.6,1.6,0,0,0,.295-1.056,2.013,2.013,0,0,0-.269-1.111.868.868,0,0,0-.773-.413.84.84,0,0,0-.758.4,1.984,1.984,0,0,0-.258,1.064,2.074,2.074,0,0,0,.137.8,1.081,1.081,0,0,0,.387.5.89.89,0,0,0,.521.166m1.6.442h-.6V78.4h-.015a1.151,1.151,0,0,1-1.053.574,1.468,1.468,0,0,1-1.169-.553,2.175,2.175,0,0,1-.47-1.441,2.225,2.225,0,0,1,.442-1.46,1.438,1.438,0,0,1,1.167-.535,1.178,1.178,0,0,1,1.039.521H39.8v-1.89h.647Z" transform="translate(19.294 38.247)" fill="#285c4d"/>
    <path id="Path_1871" data-name="Path 1871" d="M38.842,78.44a.906.906,0,0,0,.719-.348,1.6,1.6,0,0,0,.295-1.056,2.013,2.013,0,0,0-.269-1.111.868.868,0,0,0-.773-.413.84.84,0,0,0-.758.4,1.984,1.984,0,0,0-.258,1.064,2.074,2.074,0,0,0,.137.8,1.081,1.081,0,0,0,.387.5A.89.89,0,0,0,38.842,78.44Zm1.6.442h-.6V78.4h-.015a1.151,1.151,0,0,1-1.053.574,1.468,1.468,0,0,1-1.169-.553,2.175,2.175,0,0,1-.47-1.441,2.225,2.225,0,0,1,.442-1.46,1.438,1.438,0,0,1,1.167-.535,1.178,1.178,0,0,1,1.039.521H39.8v-1.89h.647Z" transform="translate(19.294 38.247)" fill="none" stroke="#285c4d" stroke-width="0.189"/>
    <path id="Path_1872" data-name="Path 1872" d="M42.887,76.139a1.049,1.049,0,0,0-1.064-1.1,1,1,0,0,0-.751.305,1.281,1.281,0,0,0-.342.79Zm.666.532H40.7a1.481,1.481,0,0,0,.359.966,1.067,1.067,0,0,0,.805.334.988.988,0,0,0,.621-.193,1.2,1.2,0,0,0,.384-.594l.666.084a1.635,1.635,0,0,1-.593.916,1.767,1.767,0,0,1-1.079.319,1.728,1.728,0,0,1-1.34-.524,2.068,2.068,0,0,1-.486-1.442,2.209,2.209,0,0,1,.468-1.462,1.625,1.625,0,0,1,1.322-.561,1.834,1.834,0,0,1,.8.184,1.59,1.59,0,0,1,.658.621,2.6,2.6,0,0,1,.269,1.351" transform="translate(20.799 38.715)" fill="#285c4d"/>
    <path id="Path_1873" data-name="Path 1873" d="M42.887,76.139a1.049,1.049,0,0,0-1.064-1.1,1,1,0,0,0-.751.305,1.281,1.281,0,0,0-.342.79Zm.666.532H40.7a1.481,1.481,0,0,0,.359.966,1.067,1.067,0,0,0,.805.334.988.988,0,0,0,.621-.193,1.2,1.2,0,0,0,.384-.594l.666.084a1.635,1.635,0,0,1-.593.916,1.767,1.767,0,0,1-1.079.319,1.728,1.728,0,0,1-1.34-.524,2.068,2.068,0,0,1-.486-1.442,2.209,2.209,0,0,1,.468-1.462,1.625,1.625,0,0,1,1.322-.561,1.834,1.834,0,0,1,.8.184,1.59,1.59,0,0,1,.658.621A2.6,2.6,0,0,1,43.552,76.671Z" transform="translate(20.799 38.715)" fill="none" stroke="#285c4d" stroke-width="0.189"/>
    <rect id="Rectangle_1271" data-name="Rectangle 1271" width="0.647" height="5.268" transform="translate(65.418 111.862)" fill="#285c4d"/>
    <rect id="Rectangle_1272" data-name="Rectangle 1272" width="0.647" height="5.268" transform="translate(65.418 111.862)" fill="none" stroke="#285c4d" stroke-width="0.189"/>
    <path id="Path_1874" data-name="Path 1874" d="M16.377,83.879h-.647V81.471a2.563,2.563,0,0,0-.035-.453.587.587,0,0,0-.652-.48.914.914,0,0,0-.656.266,1.148,1.148,0,0,0-.277.862v2.214h-.647V81.4a1,1,0,0,0-.173-.679.647.647,0,0,0-.5-.182.886.886,0,0,0-.682.287,1.624,1.624,0,0,0-.27,1.074v1.98h-.646V80.067h.582V80.6h.014a1.259,1.259,0,0,1,1.14-.618,1.3,1.3,0,0,1,.69.166.956.956,0,0,1,.4.5,1.324,1.324,0,0,1,1.175-.669,1.148,1.148,0,0,1,.889.321,1.387,1.387,0,0,1,.3.959Z" transform="translate(5.816 41.554)" fill="#285c4d"/>
    <path id="Path_1875" data-name="Path 1875" d="M16.377,83.879h-.647V81.471a2.563,2.563,0,0,0-.035-.453.587.587,0,0,0-.652-.48.914.914,0,0,0-.656.266,1.148,1.148,0,0,0-.277.862v2.214h-.647V81.4a1,1,0,0,0-.173-.679.647.647,0,0,0-.5-.182.886.886,0,0,0-.682.287,1.624,1.624,0,0,0-.27,1.074v1.98h-.646V80.067h.582V80.6h.014a1.259,1.259,0,0,1,1.14-.618,1.3,1.3,0,0,1,.69.166.956.956,0,0,1,.4.5,1.324,1.324,0,0,1,1.175-.669,1.148,1.148,0,0,1,.889.321,1.387,1.387,0,0,1,.3.959Z" transform="translate(5.816 41.554)" fill="none" stroke="#285c4d" stroke-width="0.189"/>
    <path id="Path_1876" data-name="Path 1876" d="M17.952,82.2v-.234a6.848,6.848,0,0,1-1.24.266c-.489.064-.734.272-.734.622a.543.543,0,0,0,.2.432.856.856,0,0,0,.567.172,1.326,1.326,0,0,0,.842-.284,1.175,1.175,0,0,0,.366-.973m.856,1.678h-.679a1.478,1.478,0,0,1-.134-.471,2.11,2.11,0,0,1-1.4.561,1.4,1.4,0,0,1-.953-.3,1,1,0,0,1-.349-.8,1.012,1.012,0,0,1,.334-.78,2.14,2.14,0,0,1,1.169-.409l.6-.091a2.994,2.994,0,0,0,.558-.132,3.131,3.131,0,0,0-.018-.41.662.662,0,0,0-.1-.251.556.556,0,0,0-.284-.208,1.523,1.523,0,0,0-.521-.079,1.208,1.208,0,0,0-.658.153.868.868,0,0,0-.334.576l-.632-.084a1.279,1.279,0,0,1,.535-.88,2.083,2.083,0,0,1,1.187-.295,1.947,1.947,0,0,1,1.006.2.841.841,0,0,1,.4.494,3.017,3.017,0,0,1,.076.74v.869c0,.529.009.884.029,1.064a1.339,1.339,0,0,0,.179.532" transform="translate(7.943 41.554)" fill="#285c4d"/>
    <path id="Path_1877" data-name="Path 1877" d="M17.952,82.2v-.234a6.848,6.848,0,0,1-1.24.266c-.489.064-.734.272-.734.622a.543.543,0,0,0,.2.432.856.856,0,0,0,.567.172,1.334,1.334,0,0,0,.842-.283A1.18,1.18,0,0,0,17.952,82.2Zm.856,1.678h-.679a1.478,1.478,0,0,1-.134-.471,2.11,2.11,0,0,1-1.4.561,1.4,1.4,0,0,1-.953-.3,1,1,0,0,1-.349-.8,1.013,1.013,0,0,1,.334-.781,2.14,2.14,0,0,1,1.169-.409l.6-.091a2.994,2.994,0,0,0,.558-.132,3.088,3.088,0,0,0-.018-.409.658.658,0,0,0-.1-.252.556.556,0,0,0-.284-.208,1.523,1.523,0,0,0-.521-.079,1.208,1.208,0,0,0-.658.153.868.868,0,0,0-.334.576l-.632-.084a1.279,1.279,0,0,1,.535-.88,2.083,2.083,0,0,1,1.187-.295,1.947,1.947,0,0,1,1.006.2.841.841,0,0,1,.4.494,3.017,3.017,0,0,1,.076.74v.869c0,.529.009.884.029,1.064A1.339,1.339,0,0,0,18.807,83.879Z" transform="translate(7.943 41.554)" fill="none" stroke="#285c4d" stroke-width="0.189"/>
    <path id="Path_1878" data-name="Path 1878" d="M21.425,83.879h-.65V81.562a1.182,1.182,0,0,0-.208-.805.772.772,0,0,0-.587-.219,1.1,1.1,0,0,0-.542.14.81.81,0,0,0-.366.4,1.807,1.807,0,0,0-.108.722v2.085h-.647V80.067H18.9v.539h.015a1.318,1.318,0,0,1,.5-.468,1.532,1.532,0,0,1,.7-.158,1.731,1.731,0,0,1,.6.108.976.976,0,0,1,.46.324,1.06,1.06,0,0,1,.211.459,3.416,3.416,0,0,1,.044.663Z" transform="translate(9.516 41.554)" fill="#285c4d"/>
    <path id="Path_1879" data-name="Path 1879" d="M21.425,83.879h-.65V81.562a1.182,1.182,0,0,0-.208-.805.772.772,0,0,0-.587-.219,1.1,1.1,0,0,0-.542.14.81.81,0,0,0-.366.4,1.807,1.807,0,0,0-.108.722v2.085h-.647V80.067H18.9v.539h.015a1.318,1.318,0,0,1,.5-.468,1.532,1.532,0,0,1,.7-.158,1.731,1.731,0,0,1,.6.108.976.976,0,0,1,.46.324,1.06,1.06,0,0,1,.211.459,3.416,3.416,0,0,1,.044.663Z" transform="translate(9.516 41.554)" fill="none" stroke="#285c4d" stroke-width="0.189"/>
    <path id="Path_1880" data-name="Path 1880" d="M23.913,81.6a1.049,1.049,0,0,0-1.064-1.1,1,1,0,0,0-.751.305,1.281,1.281,0,0,0-.342.79Zm.666.532H21.722a1.481,1.481,0,0,0,.359.966,1.067,1.067,0,0,0,.805.334.988.988,0,0,0,.621-.193,1.2,1.2,0,0,0,.384-.594l.666.084a1.635,1.635,0,0,1-.593.916,1.767,1.767,0,0,1-1.079.319,1.728,1.728,0,0,1-1.34-.524A2.061,2.061,0,0,1,21.059,82a2.209,2.209,0,0,1,.468-1.462,1.625,1.625,0,0,1,1.322-.561,1.834,1.834,0,0,1,.8.184,1.578,1.578,0,0,1,.656.621,2.585,2.585,0,0,1,.27,1.351" transform="translate(10.941 41.554)" fill="#285c4d"/>
    <path id="Path_1881" data-name="Path 1881" d="M23.913,81.6a1.049,1.049,0,0,0-1.064-1.1,1,1,0,0,0-.751.305,1.281,1.281,0,0,0-.342.79Zm.666.532H21.722a1.481,1.481,0,0,0,.359.966,1.067,1.067,0,0,0,.805.334.988.988,0,0,0,.621-.193,1.2,1.2,0,0,0,.384-.594l.666.084a1.635,1.635,0,0,1-.593.916,1.767,1.767,0,0,1-1.079.319,1.728,1.728,0,0,1-1.34-.524A2.061,2.061,0,0,1,21.059,82a2.209,2.209,0,0,1,.468-1.462,1.625,1.625,0,0,1,1.322-.561,1.834,1.834,0,0,1,.8.184,1.578,1.578,0,0,1,.656.621A2.585,2.585,0,0,1,24.578,82.136Z" transform="translate(10.941 41.554)" fill="none" stroke="#285c4d" stroke-width="0.189"/>
    <path id="Path_1882" data-name="Path 1882" d="M25.005,79.812h-.647v-.734h.647Zm0,4.741a3.614,3.614,0,0,1-.05.647.823.823,0,0,1-.913.685,2.044,2.044,0,0,1-.506-.064l.125-.547a1.162,1.162,0,0,0,.3.05.334.334,0,0,0,.3-.14,1.387,1.387,0,0,0,.093-.646v-4h.647Z" transform="translate(12.228 41.086)" fill="#285c4d"/>
    <path id="Path_1883" data-name="Path 1883" d="M25.005,79.812h-.647v-.734h.647Zm0,4.741a3.614,3.614,0,0,1-.05.647.823.823,0,0,1-.913.685,2.044,2.044,0,0,1-.506-.064l.125-.547a1.162,1.162,0,0,0,.3.05.334.334,0,0,0,.3-.14,1.387,1.387,0,0,0,.093-.646v-4h.647Z" transform="translate(12.228 41.086)" fill="none" stroke="#285c4d" stroke-width="0.189"/>
    <path id="Path_1884" data-name="Path 1884" d="M26.975,83.437a.96.96,0,0,0,.84-.41,1.826,1.826,0,0,0,.289-1.077,1.578,1.578,0,0,0-.324-1.079,1.036,1.036,0,0,0-.805-.362,1.019,1.019,0,0,0-.808.366,2.051,2.051,0,0,0,0,2.193,1.034,1.034,0,0,0,.805.369m0-3.457a1.738,1.738,0,0,1,1.279.5,1.942,1.942,0,0,1,.511,1.43,1.985,1.985,0,0,1-.55,1.589,1.886,1.886,0,0,1-1.24.467,1.811,1.811,0,0,1-1.254-.479,1.938,1.938,0,0,1-.533-1.517,1.983,1.983,0,0,1,.515-1.5,1.78,1.78,0,0,1,1.272-.5" transform="translate(13.086 41.554)" fill="#285c4d"/>
    <path id="Path_1885" data-name="Path 1885" d="M26.975,83.437a.96.96,0,0,0,.84-.41,1.826,1.826,0,0,0,.289-1.077,1.578,1.578,0,0,0-.324-1.079,1.036,1.036,0,0,0-.805-.362,1.019,1.019,0,0,0-.808.366,2.051,2.051,0,0,0,0,2.193A1.034,1.034,0,0,0,26.975,83.437Zm0-3.457a1.738,1.738,0,0,1,1.279.5,1.942,1.942,0,0,1,.511,1.43,1.985,1.985,0,0,1-.55,1.589,1.886,1.886,0,0,1-1.24.467,1.811,1.811,0,0,1-1.254-.479,1.938,1.938,0,0,1-.533-1.517,1.983,1.983,0,0,1,.515-1.5A1.78,1.78,0,0,1,26.975,79.98Z" transform="translate(13.086 41.554)" fill="none" stroke="#285c4d" stroke-width="0.189"/>
    <path id="Path_1886" data-name="Path 1886" d="M31.706,79.085l-.1.568a2.06,2.06,0,0,0-.38-.036.673.673,0,0,0-.381.1q-.148.1-.15.492v.359h.735v.5H30.7v3.314H30.05V81.065h-.576v-.5h.576v-.413a2.39,2.39,0,0,1,.053-.521.77.77,0,0,1,.284-.419,1.144,1.144,0,0,1,.716-.191,2.949,2.949,0,0,1,.6.065" transform="translate(15.313 41.055)" fill="#285c4d"/>
    <path id="Path_1887" data-name="Path 1887" d="M31.706,79.085l-.1.568a2.06,2.06,0,0,0-.38-.036.673.673,0,0,0-.381.1q-.148.1-.15.492v.359h.735v.5H30.7v3.314H30.05V81.065h-.576v-.5h.576v-.413a2.39,2.39,0,0,1,.053-.521.77.77,0,0,1,.284-.419,1.144,1.144,0,0,1,.716-.191A2.949,2.949,0,0,1,31.706,79.085Z" transform="translate(15.313 41.055)" fill="none" stroke="#285c4d" stroke-width="0.189"/>
    <path id="Path_1888" data-name="Path 1888" d="M32.927,83.437a.96.96,0,0,0,.84-.41,1.826,1.826,0,0,0,.289-1.077,1.578,1.578,0,0,0-.324-1.079,1.036,1.036,0,0,0-.805-.362,1.019,1.019,0,0,0-.808.366,2.051,2.051,0,0,0,0,2.193,1.036,1.036,0,0,0,.805.369m0-3.457a1.738,1.738,0,0,1,1.279.5,1.942,1.942,0,0,1,.511,1.43,1.985,1.985,0,0,1-.55,1.589,1.886,1.886,0,0,1-1.24.467,1.811,1.811,0,0,1-1.254-.479,1.938,1.938,0,0,1-.532-1.517,1.983,1.983,0,0,1,.514-1.5,1.78,1.78,0,0,1,1.272-.5" transform="translate(16.18 41.554)" fill="#285c4d"/>
    <path id="Path_1889" data-name="Path 1889" d="M32.927,83.437a.96.96,0,0,0,.84-.41,1.826,1.826,0,0,0,.289-1.077,1.578,1.578,0,0,0-.324-1.079,1.036,1.036,0,0,0-.805-.362,1.019,1.019,0,0,0-.808.366,2.051,2.051,0,0,0,0,2.193A1.036,1.036,0,0,0,32.927,83.437Zm0-3.457a1.738,1.738,0,0,1,1.279.5,1.942,1.942,0,0,1,.511,1.43,1.985,1.985,0,0,1-.55,1.589,1.886,1.886,0,0,1-1.24.467,1.811,1.811,0,0,1-1.254-.479,1.938,1.938,0,0,1-.532-1.517,1.983,1.983,0,0,1,.514-1.5A1.78,1.78,0,0,1,32.927,79.98Z" transform="translate(16.18 41.554)" fill="none" stroke="#285c4d" stroke-width="0.189"/>
    <path id="Path_1890" data-name="Path 1890" d="M36.242,80.185l-.225.6a.924.924,0,0,0-.47-.141.6.6,0,0,0-.549.324,1.839,1.839,0,0,0-.188.913v2h-.646V80.067h.59v.574h.014c.205-.441.476-.661.807-.661a1.276,1.276,0,0,1,.667.205" transform="translate(17.75 41.554)" fill="#285c4d"/>
    <path id="Path_1891" data-name="Path 1891" d="M36.242,80.185l-.225.6a.924.924,0,0,0-.47-.141.6.6,0,0,0-.549.324,1.839,1.839,0,0,0-.188.913v2h-.646V80.067h.59v.574h.014c.205-.441.476-.661.807-.661A1.276,1.276,0,0,1,36.242,80.185Z" transform="translate(17.75 41.554)" fill="none" stroke="#285c4d" stroke-width="0.189"/>
    <path id="Path_1892" data-name="Path 1892" d="M38.7,81.6a1.049,1.049,0,0,0-1.064-1.1,1,1,0,0,0-.751.305,1.281,1.281,0,0,0-.342.79Zm.666.532H36.507a1.481,1.481,0,0,0,.359.966,1.065,1.065,0,0,0,.805.334.988.988,0,0,0,.621-.193,1.2,1.2,0,0,0,.384-.594l.666.084a1.635,1.635,0,0,1-.593.916,1.767,1.767,0,0,1-1.079.319,1.728,1.728,0,0,1-1.34-.524A2.053,2.053,0,0,1,35.846,82a2.208,2.208,0,0,1,.466-1.462,1.625,1.625,0,0,1,1.322-.561,1.834,1.834,0,0,1,.8.184,1.569,1.569,0,0,1,.656.621,2.585,2.585,0,0,1,.27,1.351" transform="translate(18.624 41.554)" fill="#285c4d"/>
    <path id="Path_1893" data-name="Path 1893" d="M38.7,81.6a1.049,1.049,0,0,0-1.064-1.1,1,1,0,0,0-.751.305,1.281,1.281,0,0,0-.342.79Zm.666.532H36.507a1.481,1.481,0,0,0,.359.966,1.065,1.065,0,0,0,.805.334.988.988,0,0,0,.621-.193,1.2,1.2,0,0,0,.384-.594l.666.084a1.635,1.635,0,0,1-.593.916,1.767,1.767,0,0,1-1.079.319,1.728,1.728,0,0,1-1.34-.524A2.053,2.053,0,0,1,35.846,82a2.208,2.208,0,0,1,.466-1.462,1.625,1.625,0,0,1,1.322-.561,1.834,1.834,0,0,1,.8.184,1.569,1.569,0,0,1,.656.621A2.585,2.585,0,0,1,39.364,82.136Z" transform="translate(18.624 41.554)" fill="none" stroke="#285c4d" stroke-width="0.189"/>
    <path id="Path_1894" data-name="Path 1894" d="M41.082,81.133a.663.663,0,0,0-.251-.466.982.982,0,0,0-.587-.158,1.236,1.236,0,0,0-.6.125.409.409,0,0,0-.229.366.336.336,0,0,0,.179.324,3.8,3.8,0,0,0,.719.239,7.824,7.824,0,0,1,.9.272,1.1,1.1,0,0,1,.466.331.928.928,0,0,1,.169.6,1.078,1.078,0,0,1-.416.859,1.679,1.679,0,0,1-1.114.348,1.849,1.849,0,0,1-1.132-.305,1.361,1.361,0,0,1-.5-.924l.643-.1a.874.874,0,0,0,.295.6,1.069,1.069,0,0,0,.69.2,1.042,1.042,0,0,0,.65-.176.528.528,0,0,0,.226-.435.371.371,0,0,0-.1-.277.643.643,0,0,0-.258-.155c-.1-.033-.339-.1-.705-.187a2.229,2.229,0,0,1-1.071-.471.945.945,0,0,1-.261-.661.97.97,0,0,1,.38-.787A1.583,1.583,0,0,1,40.2,79.98a1.818,1.818,0,0,1,1.061.266,1.123,1.123,0,0,1,.456.8Z" transform="translate(20.101 41.554)" fill="#285c4d"/>
    <path id="Path_1895" data-name="Path 1895" d="M41.082,81.133a.663.663,0,0,0-.251-.466.982.982,0,0,0-.587-.158,1.236,1.236,0,0,0-.6.125.409.409,0,0,0-.229.366.336.336,0,0,0,.179.324,3.8,3.8,0,0,0,.719.239,7.824,7.824,0,0,1,.9.272,1.1,1.1,0,0,1,.466.331.927.927,0,0,1,.169.6,1.079,1.079,0,0,1-.416.86,1.679,1.679,0,0,1-1.114.348,1.849,1.849,0,0,1-1.132-.305,1.361,1.361,0,0,1-.5-.924l.643-.1a.874.874,0,0,0,.295.6,1.069,1.069,0,0,0,.69.2,1.042,1.042,0,0,0,.65-.176.528.528,0,0,0,.226-.435.371.371,0,0,0-.1-.277.643.643,0,0,0-.258-.155c-.1-.033-.339-.1-.705-.187a2.229,2.229,0,0,1-1.071-.471.945.945,0,0,1-.261-.661.97.97,0,0,1,.38-.787A1.583,1.583,0,0,1,40.2,79.98a1.818,1.818,0,0,1,1.061.266,1.123,1.123,0,0,1,.456.8Z" transform="translate(20.101 41.554)" fill="none" stroke="#285c4d" stroke-width="0.189"/>
    <path id="Path_1896" data-name="Path 1896" d="M43.088,84.3a2.581,2.581,0,0,1-.485.058,1.037,1.037,0,0,1-.618-.147.6.6,0,0,1-.237-.381,3.673,3.673,0,0,1-.044-.64V81h-.471v-.5H41.7v-.948l.647-.392V80.5H43V81h-.647v2.232a1.019,1.019,0,0,0,.058.406c.038.079.138.12.3.123a1.465,1.465,0,0,0,.287-.03Z" transform="translate(21.423 41.126)" fill="#285c4d"/>
    <path id="Path_1897" data-name="Path 1897" d="M43.088,84.3a2.581,2.581,0,0,1-.485.058,1.037,1.037,0,0,1-.618-.147.6.6,0,0,1-.237-.381,3.673,3.673,0,0,1-.044-.64V81h-.471v-.5H41.7v-.948l.647-.392V80.5H43V81h-.647v2.232a1.019,1.019,0,0,0,.058.406c.038.079.138.12.3.123a1.465,1.465,0,0,0,.287-.03Z" transform="translate(21.423 41.126)" fill="none" stroke="#285c4d" stroke-width="0.189"/>
    <path id="Path_1898" data-name="Path 1898" d="M45.533,82.2v-.234a6.848,6.848,0,0,1-1.24.266c-.488.064-.732.272-.732.622a.541.541,0,0,0,.2.432.857.857,0,0,0,.568.172,1.322,1.322,0,0,0,.84-.284,1.17,1.17,0,0,0,.366-.973m.856,1.678H45.71a1.478,1.478,0,0,1-.134-.471,2.11,2.11,0,0,1-1.4.561,1.4,1.4,0,0,1-.953-.3,1.082,1.082,0,0,1-.014-1.577,2.129,2.129,0,0,1,1.167-.409l.6-.091a2.994,2.994,0,0,0,.558-.132,3.132,3.132,0,0,0-.018-.41.638.638,0,0,0-.1-.251.556.556,0,0,0-.284-.208,1.523,1.523,0,0,0-.521-.079,1.208,1.208,0,0,0-.658.153.874.874,0,0,0-.334.576l-.632-.084a1.285,1.285,0,0,1,.535-.88A2.087,2.087,0,0,1,44.7,79.98a1.947,1.947,0,0,1,1.006.2.841.841,0,0,1,.4.494,3.017,3.017,0,0,1,.076.74v.869c0,.529.009.884.029,1.064a1.339,1.339,0,0,0,.179.532" transform="translate(22.274 41.554)" fill="#285c4d"/>
    <path id="Path_1899" data-name="Path 1899" d="M45.533,82.2v-.234a6.848,6.848,0,0,1-1.24.266c-.488.064-.732.272-.732.622a.541.541,0,0,0,.2.432.857.857,0,0,0,.568.172,1.33,1.33,0,0,0,.84-.283A1.175,1.175,0,0,0,45.533,82.2Zm.856,1.678H45.71a1.478,1.478,0,0,1-.134-.471,2.11,2.11,0,0,1-1.4.561,1.4,1.4,0,0,1-.953-.3,1.082,1.082,0,0,1-.014-1.577,2.129,2.129,0,0,1,1.167-.409l.6-.091a2.994,2.994,0,0,0,.558-.132,3.088,3.088,0,0,0-.018-.409.635.635,0,0,0-.1-.252.556.556,0,0,0-.284-.208,1.523,1.523,0,0,0-.521-.079,1.208,1.208,0,0,0-.658.153.874.874,0,0,0-.334.576l-.632-.084a1.285,1.285,0,0,1,.535-.88A2.087,2.087,0,0,1,44.7,79.98a1.947,1.947,0,0,1,1.006.2.841.841,0,0,1,.4.494,3.017,3.017,0,0,1,.076.74v.869c0,.529.009.884.029,1.064A1.339,1.339,0,0,0,46.389,83.879Z" transform="translate(22.274 41.554)" fill="none" stroke="#285c4d" stroke-width="0.189"/>
    <rect id="Rectangle_1273" data-name="Rectangle 1273" width="0.647" height="5.268" transform="translate(69.737 120.164)" fill="#285c4d"/>
    <rect id="Rectangle_1274" data-name="Rectangle 1274" width="0.647" height="5.268" transform="translate(69.737 120.164)" fill="none" stroke="#285c4d" stroke-width="0.189"/>
    <path id="Path_1900" data-name="Path 1900" d="M17.008,85.65l-.223.6a.92.92,0,0,0-.47-.141.6.6,0,0,0-.55.324,1.84,1.84,0,0,0-.187.913v2h-.647V85.532h.59v.574h.014q.31-.661.808-.661a1.267,1.267,0,0,1,.666.205" transform="translate(7.757 44.393)" fill="#285c4d"/>
    <path id="Path_1901" data-name="Path 1901" d="M17.008,85.65l-.223.6a.92.92,0,0,0-.47-.141.6.6,0,0,0-.55.324,1.84,1.84,0,0,0-.187.913v2h-.647V85.532h.59v.574h.014q.31-.661.808-.661A1.267,1.267,0,0,1,17.008,85.65Z" transform="translate(7.757 44.393)" fill="none" stroke="#285c4d" stroke-width="0.189"/>
    <path id="Path_1902" data-name="Path 1902" d="M19.465,87.069a1.049,1.049,0,0,0-1.064-1.1,1,1,0,0,0-.751.305,1.272,1.272,0,0,0-.34.79Zm.666.532H17.274a1.481,1.481,0,0,0,.359.966,1.067,1.067,0,0,0,.805.334.985.985,0,0,0,.621-.193,1.2,1.2,0,0,0,.384-.594l.666.084a1.635,1.635,0,0,1-.593.916,1.767,1.767,0,0,1-1.079.319,1.728,1.728,0,0,1-1.34-.524,2.06,2.06,0,0,1-.485-1.442,2.208,2.208,0,0,1,.466-1.462,1.625,1.625,0,0,1,1.322-.561,1.834,1.834,0,0,1,.8.184,1.581,1.581,0,0,1,.658.621,2.587,2.587,0,0,1,.269,1.351" transform="translate(8.631 44.393)" fill="#285c4d"/>
    <path id="Path_1903" data-name="Path 1903" d="M19.465,87.069a1.049,1.049,0,0,0-1.064-1.1,1,1,0,0,0-.751.305,1.272,1.272,0,0,0-.34.79Zm.666.532H17.274a1.481,1.481,0,0,0,.359.966,1.067,1.067,0,0,0,.805.334.985.985,0,0,0,.621-.193,1.2,1.2,0,0,0,.384-.594l.666.084a1.635,1.635,0,0,1-.593.916,1.767,1.767,0,0,1-1.079.319,1.728,1.728,0,0,1-1.34-.524,2.06,2.06,0,0,1-.485-1.442,2.208,2.208,0,0,1,.466-1.462,1.625,1.625,0,0,1,1.322-.561,1.834,1.834,0,0,1,.8.184,1.581,1.581,0,0,1,.658.621A2.587,2.587,0,0,1,20.131,87.6Z" transform="translate(8.631 44.393)" fill="none" stroke="#285c4d" stroke-width="0.189"/>
    <path id="Path_1904" data-name="Path 1904" d="M21.849,86.6a.659.659,0,0,0-.252-.467.974.974,0,0,0-.585-.158,1.232,1.232,0,0,0-.6.125.41.41,0,0,0-.229.368.335.335,0,0,0,.179.322,3.8,3.8,0,0,0,.719.239,7.821,7.821,0,0,1,.9.272,1.1,1.1,0,0,1,.466.331.937.937,0,0,1,.169.6,1.078,1.078,0,0,1-.416.859,1.679,1.679,0,0,1-1.114.348,1.846,1.846,0,0,1-1.132-.305,1.361,1.361,0,0,1-.5-.924l.643-.1a.874.874,0,0,0,.295.6,1.069,1.069,0,0,0,.69.2,1.033,1.033,0,0,0,.65-.176.528.528,0,0,0,.226-.435.377.377,0,0,0-.1-.277.639.639,0,0,0-.26-.155c-.1-.033-.337-.1-.7-.187a2.222,2.222,0,0,1-1.071-.471.953.953,0,0,1-.263-.661.971.971,0,0,1,.381-.787,1.583,1.583,0,0,1,1.024-.308,1.818,1.818,0,0,1,1.061.266,1.128,1.128,0,0,1,.456.8Z" transform="translate(10.108 44.393)" fill="#285c4d"/>
    <path id="Path_1905" data-name="Path 1905" d="M21.849,86.6a.659.659,0,0,0-.252-.467.974.974,0,0,0-.585-.158,1.232,1.232,0,0,0-.6.125.41.41,0,0,0-.229.368.335.335,0,0,0,.179.322,3.8,3.8,0,0,0,.719.239,7.821,7.821,0,0,1,.9.272,1.1,1.1,0,0,1,.466.331.937.937,0,0,1,.169.6,1.078,1.078,0,0,1-.416.859,1.679,1.679,0,0,1-1.114.348,1.846,1.846,0,0,1-1.132-.305,1.361,1.361,0,0,1-.5-.924l.643-.1a.874.874,0,0,0,.295.6,1.069,1.069,0,0,0,.69.2,1.033,1.033,0,0,0,.65-.176.528.528,0,0,0,.226-.435.377.377,0,0,0-.1-.277.639.639,0,0,0-.26-.155c-.1-.033-.337-.1-.7-.187a2.222,2.222,0,0,1-1.071-.471.953.953,0,0,1-.263-.661.973.973,0,0,1,.381-.787,1.583,1.583,0,0,1,1.024-.308,1.818,1.818,0,0,1,1.061.266,1.128,1.128,0,0,1,.456.8Z" transform="translate(10.108 44.393)" fill="none" stroke="#285c4d" stroke-width="0.189"/>
    <path id="Path_1906" data-name="Path 1906" d="M23.853,88.9a.912.912,0,0,0,.748-.374,1.8,1.8,0,0,0,.3-1.121,1.762,1.762,0,0,0-.284-1.077.877.877,0,0,0-.732-.377.891.891,0,0,0-.755.419,1.876,1.876,0,0,0-.3,1.09,1.725,1.725,0,0,0,.284,1.074.891.891,0,0,0,.74.366m-1-2.878a1.2,1.2,0,0,1,1.09-.579,1.438,1.438,0,0,1,1.185.542,2.2,2.2,0,0,1,.435,1.419,2.159,2.159,0,0,1-.48,1.479,1.53,1.53,0,0,1-1.184.549,1.177,1.177,0,0,1-.985-.488h-.017v1.864h-.647V85.532h.59v.492Z" transform="translate(11.558 44.393)" fill="#285c4d"/>
    <path id="Path_1907" data-name="Path 1907" d="M23.853,88.9a.912.912,0,0,0,.748-.374,1.8,1.8,0,0,0,.3-1.121,1.759,1.759,0,0,0-.284-1.077.877.877,0,0,0-.732-.377.891.891,0,0,0-.755.419,1.876,1.876,0,0,0-.3,1.09,1.725,1.725,0,0,0,.284,1.074A.891.891,0,0,0,23.853,88.9Zm-1-2.878a1.2,1.2,0,0,1,1.09-.579,1.438,1.438,0,0,1,1.185.542,2.2,2.2,0,0,1,.435,1.419,2.159,2.159,0,0,1-.48,1.479,1.53,1.53,0,0,1-1.184.549,1.177,1.177,0,0,1-.985-.488h-.017v1.864h-.647V85.532h.59v.492Z" transform="translate(11.558 44.393)" fill="none" stroke="#285c4d" stroke-width="0.189"/>
    <path id="Path_1908" data-name="Path 1908" d="M26.758,88.9a.96.96,0,0,0,.84-.41,1.837,1.837,0,0,0,.289-1.077,1.572,1.572,0,0,0-.324-1.077,1.032,1.032,0,0,0-.805-.363,1.019,1.019,0,0,0-.808.366,2.051,2.051,0,0,0,0,2.193,1.034,1.034,0,0,0,.805.369m0-3.457a1.741,1.741,0,0,1,1.279.5,1.942,1.942,0,0,1,.511,1.43A1.985,1.985,0,0,1,28,88.967a1.885,1.885,0,0,1-1.24.466,1.817,1.817,0,0,1-1.255-.479,1.943,1.943,0,0,1-.532-1.516,1.983,1.983,0,0,1,.515-1.5,1.78,1.78,0,0,1,1.272-.5" transform="translate(12.974 44.393)" fill="#285c4d"/>
    <path id="Path_1909" data-name="Path 1909" d="M26.758,88.9a.96.96,0,0,0,.84-.41,1.837,1.837,0,0,0,.289-1.077,1.572,1.572,0,0,0-.324-1.077,1.032,1.032,0,0,0-.805-.363,1.019,1.019,0,0,0-.808.366,2.051,2.051,0,0,0,0,2.193A1.034,1.034,0,0,0,26.758,88.9Zm0-3.457a1.741,1.741,0,0,1,1.279.5,1.942,1.942,0,0,1,.511,1.43A1.985,1.985,0,0,1,28,88.967a1.885,1.885,0,0,1-1.24.466,1.817,1.817,0,0,1-1.255-.479,1.943,1.943,0,0,1-.532-1.516,1.983,1.983,0,0,1,.515-1.5A1.78,1.78,0,0,1,26.758,85.445Z" transform="translate(12.974 44.393)" fill="none" stroke="#285c4d" stroke-width="0.189"/>
    <path id="Path_1910" data-name="Path 1910" d="M31.121,89.344h-.65V87.027a1.182,1.182,0,0,0-.208-.805A.772.772,0,0,0,29.676,86a1.1,1.1,0,0,0-.542.14.81.81,0,0,0-.366.4,1.807,1.807,0,0,0-.108.722v2.085h-.647V85.532h.582v.539h.015a1.329,1.329,0,0,1,.5-.468,1.532,1.532,0,0,1,.7-.158,1.747,1.747,0,0,1,.6.108.979.979,0,0,1,.459.324,1.078,1.078,0,0,1,.213.46,3.536,3.536,0,0,1,.043.661Z" transform="translate(14.554 44.393)" fill="#285c4d"/>
    <path id="Path_1911" data-name="Path 1911" d="M31.121,89.344h-.65V87.027a1.182,1.182,0,0,0-.208-.805A.772.772,0,0,0,29.676,86a1.1,1.1,0,0,0-.542.14.81.81,0,0,0-.366.4,1.807,1.807,0,0,0-.108.722v2.085h-.647V85.532h.582v.539h.015a1.329,1.329,0,0,1,.5-.468,1.532,1.532,0,0,1,.7-.158,1.747,1.747,0,0,1,.6.108.979.979,0,0,1,.459.324,1.078,1.078,0,0,1,.213.46,3.536,3.536,0,0,1,.043.661Z" transform="translate(14.554 44.393)" fill="none" stroke="#285c4d" stroke-width="0.189"/>
    <path id="Path_1912" data-name="Path 1912" d="M33.109,86.6a.659.659,0,0,0-.252-.467.974.974,0,0,0-.585-.158,1.232,1.232,0,0,0-.6.125.41.41,0,0,0-.229.368.335.335,0,0,0,.179.322,3.8,3.8,0,0,0,.719.239,7.821,7.821,0,0,1,.9.272,1.1,1.1,0,0,1,.466.331.937.937,0,0,1,.169.6,1.078,1.078,0,0,1-.416.859,1.679,1.679,0,0,1-1.114.348,1.846,1.846,0,0,1-1.132-.305,1.361,1.361,0,0,1-.5-.924l.643-.1a.874.874,0,0,0,.295.6,1.069,1.069,0,0,0,.69.2,1.033,1.033,0,0,0,.65-.176.532.532,0,0,0,.226-.435.371.371,0,0,0-.1-.277.639.639,0,0,0-.26-.155c-.1-.033-.337-.1-.7-.187a2.229,2.229,0,0,1-1.071-.471.953.953,0,0,1-.263-.661.971.971,0,0,1,.381-.787,1.583,1.583,0,0,1,1.024-.308,1.818,1.818,0,0,1,1.061.266,1.128,1.128,0,0,1,.456.8Z" transform="translate(15.958 44.393)" fill="#285c4d"/>
    <path id="Path_1913" data-name="Path 1913" d="M33.109,86.6a.659.659,0,0,0-.252-.467.974.974,0,0,0-.585-.158,1.232,1.232,0,0,0-.6.125.41.41,0,0,0-.229.368.335.335,0,0,0,.179.322,3.8,3.8,0,0,0,.719.239,7.821,7.821,0,0,1,.9.272,1.1,1.1,0,0,1,.466.331.937.937,0,0,1,.169.6,1.078,1.078,0,0,1-.416.859,1.679,1.679,0,0,1-1.114.348,1.846,1.846,0,0,1-1.132-.305,1.361,1.361,0,0,1-.5-.924l.643-.1a.874.874,0,0,0,.295.6,1.069,1.069,0,0,0,.69.2,1.033,1.033,0,0,0,.65-.176.532.532,0,0,0,.226-.435.371.371,0,0,0-.1-.277.639.639,0,0,0-.26-.155c-.1-.033-.337-.1-.7-.187a2.229,2.229,0,0,1-1.071-.471.953.953,0,0,1-.263-.661.973.973,0,0,1,.381-.787,1.583,1.583,0,0,1,1.024-.308,1.818,1.818,0,0,1,1.061.266,1.128,1.128,0,0,1,.456.8Z" transform="translate(15.958 44.393)" fill="none" stroke="#285c4d" stroke-width="0.189"/>
    <path id="Path_1914" data-name="Path 1914" d="M36.025,87.667v-.234a6.847,6.847,0,0,1-1.24.266c-.489.064-.732.272-.732.621a.541.541,0,0,0,.2.432.856.856,0,0,0,.567.172,1.331,1.331,0,0,0,.842-.283,1.18,1.18,0,0,0,.366-.974m.855,1.678H36.2a1.478,1.478,0,0,1-.134-.471,2.11,2.11,0,0,1-1.4.561,1.41,1.41,0,0,1-.953-.3,1.086,1.086,0,0,1-.015-1.579,2.14,2.14,0,0,1,1.169-.409l.6-.09a3.118,3.118,0,0,0,.556-.134,3.087,3.087,0,0,0-.018-.409.644.644,0,0,0-.1-.252.556.556,0,0,0-.284-.208,1.522,1.522,0,0,0-.521-.079,1.222,1.222,0,0,0-.658.153.868.868,0,0,0-.334.576l-.632-.084a1.285,1.285,0,0,1,.535-.88,2.084,2.084,0,0,1,1.187-.295,1.947,1.947,0,0,1,1.006.2.841.841,0,0,1,.4.494,3.017,3.017,0,0,1,.076.74v.869c0,.529.009.884.029,1.064a1.339,1.339,0,0,0,.179.532" transform="translate(17.334 44.393)" fill="#285c4d"/>
    <path id="Path_1915" data-name="Path 1915" d="M36.025,87.667v-.234a6.847,6.847,0,0,1-1.24.266c-.489.064-.732.272-.732.621a.541.541,0,0,0,.2.432.856.856,0,0,0,.567.172,1.331,1.331,0,0,0,.842-.283A1.18,1.18,0,0,0,36.025,87.667Zm.855,1.678H36.2a1.478,1.478,0,0,1-.134-.471,2.11,2.11,0,0,1-1.4.561,1.41,1.41,0,0,1-.953-.3,1.086,1.086,0,0,1-.015-1.579,2.14,2.14,0,0,1,1.169-.409l.6-.09a3.118,3.118,0,0,0,.556-.134,3.087,3.087,0,0,0-.018-.409.644.644,0,0,0-.1-.252.556.556,0,0,0-.284-.208,1.522,1.522,0,0,0-.521-.079,1.222,1.222,0,0,0-.658.153.868.868,0,0,0-.334.576l-.632-.084a1.285,1.285,0,0,1,.535-.88,2.084,2.084,0,0,1,1.187-.295,1.947,1.947,0,0,1,1.006.2.841.841,0,0,1,.4.494,3.017,3.017,0,0,1,.076.74v.869c0,.529.009.884.029,1.064A1.339,1.339,0,0,0,36.881,89.344Z" transform="translate(17.334 44.393)" fill="none" stroke="#285c4d" stroke-width="0.189"/>
    <path id="Path_1916" data-name="Path 1916" d="M38,89.37a.9.9,0,0,0,.74-.384,1.8,1.8,0,0,0,.295-1.085,1.852,1.852,0,0,0-.27-1.064.864.864,0,0,0-.743-.4.88.88,0,0,0-.752.407,1.779,1.779,0,0,0-.287,1.027,2.231,2.231,0,0,0,.119.863,1.229,1.229,0,0,0,.356.445A.828.828,0,0,0,38,89.37m-.95-2.943a1.177,1.177,0,0,1,1.029-.514,1.449,1.449,0,0,1,1.178.535,2.126,2.126,0,0,1,.442,1.4,2.156,2.156,0,0,1-.492,1.524,1.547,1.547,0,0,1-1.156.532A1.187,1.187,0,0,1,37,89.334H36.99v.479h-.6V84.544h.647v1.883Z" transform="translate(18.904 43.925)" fill="#285c4d"/>
    <path id="Path_1917" data-name="Path 1917" d="M38,89.37a.9.9,0,0,0,.74-.384,1.8,1.8,0,0,0,.295-1.085,1.852,1.852,0,0,0-.27-1.064.864.864,0,0,0-.743-.4.88.88,0,0,0-.752.407,1.779,1.779,0,0,0-.287,1.027,2.231,2.231,0,0,0,.119.863,1.229,1.229,0,0,0,.356.445A.828.828,0,0,0,38,89.37Zm-.95-2.943a1.177,1.177,0,0,1,1.029-.514,1.449,1.449,0,0,1,1.178.535,2.126,2.126,0,0,1,.442,1.4,2.156,2.156,0,0,1-.492,1.524,1.547,1.547,0,0,1-1.156.532A1.187,1.187,0,0,1,37,89.334H36.99v.479h-.6V84.544h.647v1.883Z" transform="translate(18.904 43.925)" fill="none" stroke="#285c4d" stroke-width="0.189"/>
    <rect id="Rectangle_1275" data-name="Rectangle 1275" width="0.647" height="5.268" transform="translate(59.67 128.469)" fill="#285c4d"/>
    <rect id="Rectangle_1276" data-name="Rectangle 1276" width="0.647" height="5.268" transform="translate(59.67 128.469)" fill="none" stroke="#285c4d" stroke-width="0.189"/>
    <path id="Path_1918" data-name="Path 1918" d="M43.251,87.069a1.049,1.049,0,0,0-1.064-1.1,1,1,0,0,0-.751.305,1.272,1.272,0,0,0-.34.79Zm.666.532H41.06a1.481,1.481,0,0,0,.359.966,1.067,1.067,0,0,0,.805.334.985.985,0,0,0,.621-.193,1.2,1.2,0,0,0,.384-.594l.666.084a1.635,1.635,0,0,1-.593.916,1.767,1.767,0,0,1-1.079.319,1.728,1.728,0,0,1-1.34-.524,2.06,2.06,0,0,1-.485-1.442,2.208,2.208,0,0,1,.467-1.462,1.625,1.625,0,0,1,1.322-.561,1.834,1.834,0,0,1,.8.184,1.581,1.581,0,0,1,.658.621,2.587,2.587,0,0,1,.269,1.351" transform="translate(20.989 44.393)" fill="#285c4d"/>
    <path id="Path_1919" data-name="Path 1919" d="M43.251,87.069a1.049,1.049,0,0,0-1.064-1.1,1,1,0,0,0-.751.305,1.272,1.272,0,0,0-.34.79Zm.666.532H41.06a1.481,1.481,0,0,0,.359.966,1.067,1.067,0,0,0,.805.334.985.985,0,0,0,.621-.193,1.2,1.2,0,0,0,.384-.594l.666.084a1.635,1.635,0,0,1-.593.916,1.767,1.767,0,0,1-1.079.319,1.728,1.728,0,0,1-1.34-.524,2.06,2.06,0,0,1-.485-1.442,2.208,2.208,0,0,1,.467-1.462,1.625,1.625,0,0,1,1.322-.561,1.834,1.834,0,0,1,.8.184,1.581,1.581,0,0,1,.658.621A2.587,2.587,0,0,1,43.917,87.6Z" transform="translate(20.989 44.393)" fill="none" stroke="#285c4d" stroke-width="0.189"/>
  </g>
</svg>
