<svg xmlns="http://www.w3.org/2000/svg" xmlns:xlink="http://www.w3.org/1999/xlink" width="202" height="118.322" viewBox="0 0 202 118.322">
  <defs>
    <filter id="Grupo_HZ" x="0" y="47.322" width="202" height="71" filterUnits="userSpaceOnUse">
      <feOffset dy="3" input="SourceAlpha"/>
      <feGaussianBlur stdDeviation="3" result="blur"/>
      <feFlood flood-opacity="0.302"/>
      <feComposite operator="in" in2="blur"/>
      <feComposite in="SourceGraphic"/>
    </filter>
    <clipPath id="clip-path">
      <rect id="Rectángulo_1264" data-name="Rectángulo 1264" width="177.853" height="58.322" fill="none"/>
    </clipPath>
  </defs>
  <g id="Grupo_8911" data-name="Grupo 8911" transform="translate(-584 -240.678)">
    <g id="Grupo_8773" data-name="Grupo 8773" transform="translate(98 13)">
      <g id="Grupo_8825" data-name="Grupo 8825" transform="translate(0 54)">
        <g transform="matrix(1, 0, 0, 1, 486, 173.68)" filter="url(#Grupo_HZ)">
          <text id="Grupo_HZ-2" data-name="Grupo HZ" transform="translate(9 96.32)" fill="#fff" font-size="40" font-family="SegoeUI-Bold, Segoe UI" font-weight="700"><tspan x="0" y="0">Grupo HZ</tspan></text>
        </g>
      </g>
    </g>
    <g id="Grupo_8737" data-name="Grupo 8737" transform="translate(594.197 240.678)">
      <g id="Grupo_8737-2" data-name="Grupo 8737" clip-path="url(#clip-path)">
        <path id="Trazado_1794" data-name="Trazado 1794" d="M349.123.858a29.861,29.861,0,0,0-7-.858,29.168,29.168,0,0,0-17.958,52.176A29.166,29.166,0,1,0,349.123.858M317.309,29.124a24.609,24.609,0,0,1,6.853-17.045,25.224,25.224,0,0,1,6.832-5.056l-6.832,11.984-6.775,11.967c-.036-.591-.077-1.221-.077-1.85M349.123,52.96a26.7,26.7,0,0,1-7,.972,24.676,24.676,0,0,1-23.493-16.945l5.534-9.677,2.939-5.077c5.686-5.4,9.543-5.1,10.821-5.171,1.3-.078,2.06.533,1.584,1.582-.459,1.089-8.644,15.745-8.644,15.745l18.262.04h.459l-.459.3-22.576,13.34h31.526a25.416,25.416,0,0,1-8.949,4.887m12.9-9.2H341.873l7.25-4.085,16.107-9.2H337.844s5.192-9.369,5.935-11.144c.841-1.739-.341-4.277-2.575-5.651-2-1.3-7.767.4-9.962,1.318l5.724-10.116a28.3,28.3,0,0,1,5.154-.5,23.883,23.883,0,0,1,7,1.05A24.69,24.69,0,0,1,366.89,29.124a24.35,24.35,0,0,1-4.865,14.636" transform="translate(-253.156)" fill="#fff"/>
        <path id="Trazado_1795" data-name="Trazado 1795" d="M16.921,380.827H24.27a7.449,7.449,0,0,1-2.64,4.4,8.5,8.5,0,0,1-5.617,2.111,10.184,10.184,0,0,1-6.888-2.863,10,10,0,0,1-3.4-7.825A10.456,10.456,0,0,1,8.78,368.98a10.21,10.21,0,0,1,7.563-3.114c3.369,0,6.155,1.53,8.518,4.677l.4.529,4.106-3.933-.37-.422a19.51,19.51,0,0,0-5.91-4.782,15.935,15.935,0,0,0-6.82-1.487,15.743,15.743,0,0,0-11.518,4.736,16.227,16.227,0,0,0-.081,22.855,15.223,15.223,0,0,0,11.192,4.72,14.2,14.2,0,0,0,11.057-4.9,13.348,13.348,0,0,0,2.74-4.715,21.15,21.15,0,0,0,.824-6.161v-1.577H16.921Z" transform="translate(0 -291.605)" fill="#fff"/>
        <path id="Trazado_1796" data-name="Trazado 1796" d="M183.719,418.721a5.556,5.556,0,0,0-2.516.541,6.663,6.663,0,0,0-1.285.89v-.914h-5.548v20.094h5.548V428.939c0-4.812,2.247-4.812,2.985-4.812a3.625,3.625,0,0,1,2.084.783l.559.4,2.551-5.1-.467-.279a7.661,7.661,0,0,0-3.912-1.209" transform="translate(-141.067 -338.748)" fill="#fff"/>
        <path id="Trazado_1797" data-name="Trazado 1797" d="M264.8,433.98c0,3.686-1.785,4.113-3.127,4.113s-3.128-.427-3.128-4.113V422.537H253v11.542a11.235,11.235,0,0,0,.588,4.147,7.292,7.292,0,0,0,2.082,2.881,8.734,8.734,0,0,0,5.579,2.059q.21.008.425.008t.428-.008a8.754,8.754,0,0,0,5.6-2.059,7.208,7.208,0,0,0,2.052-2.9,12.825,12.825,0,0,0,.6-4.127V422.537H264.8Z" transform="translate(-204.678 -341.835)" fill="#fff"/>
        <path id="Trazado_1798" data-name="Trazado 1798" d="M374.925,418a8.416,8.416,0,0,0-5.276,1.9v-1.386h-5.529v30.4h5.548V437.18a8.418,8.418,0,0,0,5.346,1.972,8.767,8.767,0,0,0,6.8-3.011,10.843,10.843,0,0,0,2.689-7.479,10.994,10.994,0,0,0-2.712-7.6A8.769,8.769,0,0,0,374.925,418m-4.167,14.586a6.625,6.625,0,0,1-.006-8,4.374,4.374,0,0,1,3.455-1.474,4.156,4.156,0,0,1,3.312,1.525,6.008,6.008,0,0,1,1.329,4.045,5.6,5.6,0,0,1-1.364,3.884,4.125,4.125,0,0,1-3.3,1.511,4.289,4.289,0,0,1-3.43-1.487" transform="translate(-294.576 -338.162)" fill="#fff"/>
        <path id="Trazado_1799" data-name="Trazado 1799" d="M495.633,418.721a10.445,10.445,0,0,0-7.561,3.042,10,10,0,0,0-3.11,7.391,10.4,10.4,0,0,0,3.048,7.639,10.225,10.225,0,0,0,7.546,3.084,10.643,10.643,0,0,0,7.656-3.019,10.71,10.71,0,0,0,.025-15.073,10.5,10.5,0,0,0-7.6-3.064m3.663,14.61a5.292,5.292,0,0,1-7.325-.019,5.849,5.849,0,0,1-1.358-4.088,5.472,5.472,0,0,1,1.4-3.912,4.677,4.677,0,0,1,3.625-1.483,4.724,4.724,0,0,1,3.664,1.483,6.529,6.529,0,0,1,0,8.019" transform="translate(-392.337 -338.748)" fill="#fff"/>
        <path id="Trazado_1800" data-name="Trazado 1800" d="M685.728,375.291H673.986V363.566h-5.7v31.146h5.7v-14h11.742v14h5.7V363.566h-5.7Z" transform="translate(-540.646 -294.127)" fill="#fff"/>
        <path id="Trazado_1801" data-name="Trazado 1801" d="M828.806,363.566H807.465v5.419h11.882l-14.714,25.728h23.418v-5.418H814.092l14.714-25.728" transform="translate(-650.953 -294.127)" fill="#fff"/>
      </g>
    </g>
  </g>
</svg>
