<svg xmlns="http://www.w3.org/2000/svg" xmlns:xlink="http://www.w3.org/1999/xlink" width="679.627" height="454.673" viewBox="0 0 679.627 454.673">
  <defs>
    <linearGradient id="linear-gradient" x1="0.213" y1="0.09" x2="0.787" y2="0.91" gradientUnits="objectBoundingBox">
      <stop offset="0" stop-color="#fff"/>
      <stop offset="0.202" stop-color="#00246d"/>
    </linearGradient>
    <linearGradient id="linear-gradient-2" x1="0.128" y1="-0.102" x2="0.872" y2="1.102" xlink:href="#linear-gradient"/>
    <linearGradient id="linear-gradient-3" x1="0.134" y1="-0.1" x2="0.867" y2="1.101" xlink:href="#linear-gradient"/>
  </defs>
  <g id="Grupo_10302" data-name="Grupo 10302" transform="translate(-84 -1111.943)">
    <path id="Trazado_1563" data-name="Trazado 1563" d="M603.344.013c-45.158.566-90.1,19.065-124.162,55.387s-50.806,83.6-50.36,130.713a146.967,146.967,0,0,1,33.514-58.3,139.036,139.036,0,0,1,53.042-35.473,135.411,135.411,0,0,1,59.183-7.967L648.509,5.525A170.6,170.6,0,0,0,603.344.013" transform="translate(86.225 788.313) rotate(49)" fill="#f29100"/>
    <path id="Trazado_1564" data-name="Trazado 1564" d="M100.178,687.8c102.076,12.93,209.3-14.674,297.59-85.916s140.942-172.655,154.756-279.1a334.835,334.835,0,0,1-93.964,121,316.771,316.771,0,0,1-130.846,63.355,308.493,308.493,0,0,1-136.051-.642L0,661.151A388.68,388.68,0,0,0,100.178,687.8" transform="translate(84 799.607)" fill="#b9d057"/>
    <path id="shutterstock_635526101" d="M284.956,482.665c3.884-1.388,7.787-2.735,11.723-4.015,75.853-24.656,156.1-27.56,236.313-24.421,40.342-126.172.284-263.683-98.232-348.836-65.031,75.86-149.179,135.413-243.347,168.963,44.06,62.954,83.141,132.529,93.542,208.308" transform="translate(97.586 1052.832)" fill="#fff"/>
    <path id="Trazado_1566" data-name="Trazado 1566" d="M719.815,521.475c-8.451,8.589-17.135,16.963-25.785,25.254l45.71,114.777,121.58-48.42q-2.48-11.307-3.914-22.815a139.877,139.877,0,0,1-137.591-68.8" transform="translate(-97.692 905.11)" fill="#5cb680"/>
    <text id="_Distribuidor_oficial" data-name=" Distribuidor oficial" transform="translate(399.642 1447.535)" fill="#00246d" font-size="12" font-family="SegoeUI, Segoe UI"><tspan x="26.038" y="13" xml:space="preserve"> DISTRIBUIDOR OFICIAL</tspan></text>
    <g id="Grupo_10288" data-name="Grupo 10288" transform="translate(432.426 1284.678)">
      <path id="Trazado_2253" data-name="Trazado 2253" d="M106.655,46.021a48.362,48.362,0,1,0,48.363,48.362,48.363,48.363,0,0,0-48.363-48.362m0-11.013a59.375,59.375,0,1,0,59.376,59.375,59.374,59.374,0,0,0-59.376-59.375" transform="translate(-47.28 -35.008)" fill-rule="evenodd" fill="url(#linear-gradient)"/>
      <path id="Trazado_2254" data-name="Trazado 2254" d="M167.189,344.027h25.17l.107-14.089h8.106v37.131h-8.156V352.122c-3.088-.1-6.423-.125-9.821-.125-3.626,0-7.323.03-10.867.033h-1.322c-1.1,0-2.172-.006-3.224-.015v15.053h-8.738V329.938h8.746v14.089" transform="translate(-142.635 -287.998)" fill-rule="evenodd" fill="url(#linear-gradient-2)"/>
      <path id="Trazado_2255" data-name="Trazado 2255" d="M472.439,343.9q.7.021,1.374.019c12.938-.037,20.475-6.292,23.8-16.23h9.066c-2.419,8.118-6.4,15.182-13.865,18.238-.915.375-2.008.732-2.88,1.066.983.448,1.95,1,2.88,1.493,6.324,3.385,11.93,8.366,13.545,16.638h-9.279c-3.356-9.388-10.429-15.542-22.848-15.6h-.441q-.664,0-1.348.032l-.031,15.587h-8.715V328h8.715l.031,15.9" transform="translate(-404.477 -286.068)" fill-rule="evenodd" fill="url(#linear-gradient-3)"/>
      <g id="Grupo_10287" data-name="Grupo 10287" transform="translate(28.943 125.003)">
        <path id="Trazado_2256" data-name="Trazado 2256" d="M253.952,925.449v-4.108h3.417v4.108h3.154V915.31h-3.154v3.541h-3.417V915.31h-3.139v10.138h3.139" transform="translate(-250.813 -915.13)" fill="#00246d" fill-rule="evenodd"/>
        <path id="Trazado_2257" data-name="Trazado 2257" d="M332.419,966.767h3.015v2.821h-3.015v-2.821" transform="translate(-320.814 -959.269)" fill="#00246d" fill-rule="evenodd"/>
        <path id="Trazado_2258" data-name="Trazado 2258" d="M370.088,925.449V922.99l1.625-1.7,2.125,4.154H377.7l-3.852-6.314,3.685-3.824h-4.164l-3.277,3.832V915.31h-3.139v10.138h3.139" transform="translate(-350.433 -915.13)" fill="#00246d" fill-rule="evenodd"/>
        <path id="Trazado_2259" data-name="Trazado 2259" d="M450.8,921.522a4.58,4.58,0,0,1,0-4.427,1.886,1.886,0,0,1,1.514-.672,1.955,1.955,0,0,1,1.558.66,3.14,3.14,0,0,1,.575,2.092,3.761,3.761,0,0,1-.551,2.357,2.141,2.141,0,0,1-3.1-.012m4.466,2.387a4.26,4.26,0,0,0,1.728-1.773,6.267,6.267,0,0,0,.6-2.918,5.133,5.133,0,0,0-1.369-3.812,5.289,5.289,0,0,0-3.9-1.362,4.8,4.8,0,0,0-5.232,5.257,5.768,5.768,0,0,0,.7,2.964A4.281,4.281,0,0,0,449.61,924a6.46,6.46,0,0,0,2.837.544,5.7,5.7,0,0,0,2.817-.631" transform="translate(-419.178 -914.044)" fill="#00246d" fill-rule="evenodd"/>
        <path id="Trazado_2260" data-name="Trazado 2260" d="M537.77,924.149a3.791,3.791,0,0,0,1.478-1.17,5.087,5.087,0,0,0,.871-1.932l-2.753-.833a3.147,3.147,0,0,1-.667,1.472,2.01,2.01,0,0,1-2.792-.12,3.8,3.8,0,0,1-.511-2.313,3.642,3.642,0,0,1,.429-2,1.837,1.837,0,0,1,1.632-.858,1.867,1.867,0,0,1,.85.193,1.787,1.787,0,0,1,.644.548,2.361,2.361,0,0,1,.3.672l2.768-.61a4.558,4.558,0,0,0-1.629-2.379,5.153,5.153,0,0,0-3.013-.775A5.089,5.089,0,0,0,531.6,915.4a5.271,5.271,0,0,0-1.339,3.871,5.741,5.741,0,0,0,.76,3.1,4.3,4.3,0,0,0,1.809,1.693,6.571,6.571,0,0,0,2.7.478,5.55,5.55,0,0,0,2.243-.392" transform="translate(-490.519 -914.044)" fill="#00246d" fill-rule="evenodd"/>
        <path id="Trazado_2261" data-name="Trazado 2261" d="M613.514,925.449v-4.108h3.417v4.108h3.154V915.31h-3.154v3.541h-3.417V915.31h-3.139v10.138h3.139" transform="translate(-559.243 -915.13)" fill="#00246d" fill-rule="evenodd"/>
      </g>
    </g>
  </g>
</svg>
