<svg xmlns="http://www.w3.org/2000/svg" width="164.462" height="102.409" viewBox="0 0 164.462 102.409">
  <g id="Group_10283" data-name="Group 10283" transform="translate(-122.495 -132.174)">
    <path id="Path_2279" data-name="Path 2279" d="M468.892,132.967a27.611,27.611,0,0,0-6.476-.793,26.943,26.943,0,1,0,6.476.793Zm-29.419,26.138a22.756,22.756,0,0,1,6.337-15.761,23.319,23.319,0,0,1,6.318-4.676L445.81,149.75l-6.265,11.066C439.512,160.269,439.474,159.687,439.474,159.105Zm29.419,22.041a24.685,24.685,0,0,1-6.476.9,22.818,22.818,0,0,1-21.724-15.669l5.118-8.948,2.718-4.695c5.258-4.993,8.825-4.712,10.007-4.781,1.2-.072,1.905.493,1.464,1.463-.425,1.008-7.993,14.56-7.993,14.56l16.887.037h.424l-.424.281-20.877,12.336h29.152A23.5,23.5,0,0,1,468.892,181.146Zm11.931-8.507H462.189l6.7-3.778,14.894-8.5H458.462s4.8-8.663,5.489-10.305c.777-1.608-.315-3.956-2.381-5.226-1.853-1.2-7.182.371-9.212,1.219l5.293-9.354a26.174,26.174,0,0,1,4.766-.458,22.085,22.085,0,0,1,6.476.971,22.831,22.831,0,0,1,16.429,21.9A22.518,22.518,0,0,1,480.823,172.639Z" transform="translate(-257.656)" fill="#fff"/>
    <g id="Group_10282" data-name="Group 10282" transform="translate(122.495 195.834)">
      <path id="Path_2280" data-name="Path 2280" d="M138.142,511.467h6.8a6.888,6.888,0,0,1-2.441,4.071,7.863,7.863,0,0,1-5.194,1.952,9.417,9.417,0,0,1-6.369-2.648,9.245,9.245,0,0,1-3.141-7.236,9.669,9.669,0,0,1,2.821-7.094,9.442,9.442,0,0,1,6.994-2.879c3.115,0,5.692,1.415,7.877,4.325l.368.489,3.8-3.637-.342-.39A18.036,18.036,0,0,0,143.842,494a14.735,14.735,0,0,0-6.306-1.375,14.99,14.99,0,0,0-10.726,25.513,14.077,14.077,0,0,0,10.349,4.365,13.128,13.128,0,0,0,10.225-4.528,12.344,12.344,0,0,0,2.534-4.36,19.555,19.555,0,0,0,.762-5.7v-1.458H138.142Z" transform="translate(-122.495 -492.623)" fill="#fff"/>
      <path id="Path_2281" data-name="Path 2281" d="M305.51,550.9a5.138,5.138,0,0,0-2.326.5,6.164,6.164,0,0,0-1.188.823v-.845h-5.13v18.581H302v-9.611c0-4.449,2.078-4.449,2.76-4.449a3.35,3.35,0,0,1,1.927.724l.517.372,2.359-4.719-.432-.259A7.084,7.084,0,0,0,305.51,550.9Z" transform="translate(-266.07 -540.603)" fill="#fff"/>
      <path id="Path_2282" data-name="Path 2282" d="M386.408,565.292c0,3.409-1.651,3.8-2.892,3.8s-2.892-.395-2.892-3.8V554.711h-5.13v10.673a10.392,10.392,0,0,0,.544,3.835,6.743,6.743,0,0,0,1.926,2.664,8.077,8.077,0,0,0,5.159,1.9q.195.007.393.007t.4-.007a8.1,8.1,0,0,0,5.174-1.9,6.669,6.669,0,0,0,1.9-2.683,11.862,11.862,0,0,0,.555-3.816V554.711h-5.13Z" transform="translate(-330.811 -543.745)" fill="#fff"/>
      <path id="Path_2283" data-name="Path 2283" d="M496.607,550.171a7.783,7.783,0,0,0-4.878,1.76V550.65h-5.112v28.107h5.13V567.91a7.785,7.785,0,0,0,4.943,1.823,8.107,8.107,0,0,0,6.284-2.784,10.026,10.026,0,0,0,2.487-6.916,10.167,10.167,0,0,0-2.508-7.024A8.108,8.108,0,0,0,496.607,550.171Zm-3.854,13.488a6.127,6.127,0,0,1-.005-7.4,4.044,4.044,0,0,1,3.194-1.363,3.843,3.843,0,0,1,3.063,1.41,5.556,5.556,0,0,1,1.229,3.74,5.179,5.179,0,0,1-1.261,3.592,3.814,3.814,0,0,1-3.049,1.4A3.967,3.967,0,0,1,492.753,563.659Z" transform="translate(-422.307 -540.007)" fill="#fff"/>
      <path id="Path_2284" data-name="Path 2284" d="M617.324,550.9a9.658,9.658,0,0,0-6.992,2.813,9.25,9.25,0,0,0-2.876,6.834,9.62,9.62,0,0,0,2.818,7.064,9.456,9.456,0,0,0,6.978,2.852,9.842,9.842,0,0,0,7.079-2.792,9.9,9.9,0,0,0,.023-13.938A9.714,9.714,0,0,0,617.324,550.9Zm3.387,13.51a4.893,4.893,0,0,1-6.774-.017,5.407,5.407,0,0,1-1.256-3.78,5.059,5.059,0,0,1,1.29-3.618,4.325,4.325,0,0,1,3.352-1.371,4.369,4.369,0,0,1,3.388,1.371,6.038,6.038,0,0,1,0,7.415Z" transform="translate(-521.806 -540.603)" fill="#fff"/>
      <path id="Path_2285" data-name="Path 2285" d="M806.91,506.582H796.052V495.74h-5.274v28.8h5.274V511.593H806.91v12.948h5.274v-28.8H806.91Z" transform="translate(-672.75 -495.189)" fill="#fff"/>
      <path id="Path_2286" data-name="Path 2286" d="M949.481,495.74H929.747v5.01h10.988l-13.607,23.791h21.655v-5.01H935.874Z" transform="translate(-785.019 -495.189)" fill="#fff"/>
    </g>
  </g>
</svg>
